<svg id="Objects" xmlns="http://www.w3.org/2000/svg" xmlns:xlink="http://www.w3.org/1999/xlink" viewBox="0 0 750 500"><defs><style>.cls-1{fill:none;}.cls-2{clip-path:url(#clip-path);}.cls-3{fill:url(#linear-gradient);}.cls-4{clip-path:url(#clip-path-2);}.cls-5{fill:url(#linear-gradient-2);}.cls-6{fill:url(#linear-gradient-3);}.cls-7{fill:url(#linear-gradient-4);}.cls-8{fill:url(#linear-gradient-5);}.cls-9{fill:url(#linear-gradient-6);}.cls-10{fill:url(#linear-gradient-7);}.cls-11{fill:url(#linear-gradient-8);}.cls-12{fill:url(#linear-gradient-9);}.cls-13{fill:url(#linear-gradient-10);}.cls-14{fill:url(#linear-gradient-11);}.cls-15{fill:url(#linear-gradient-12);}.cls-16{fill:url(#linear-gradient-13);}.cls-17{fill:url(#linear-gradient-14);}.cls-18{fill:url(#linear-gradient-15);}.cls-19{fill:url(#linear-gradient-16);}.cls-20{fill:url(#linear-gradient-17);}.cls-21{fill:url(#linear-gradient-18);}.cls-22{fill:url(#linear-gradient-19);}.cls-23{fill:url(#linear-gradient-20);}.cls-24{fill:url(#linear-gradient-21);}.cls-25{fill:url(#linear-gradient-22);}.cls-26{fill:url(#linear-gradient-23);}.cls-27{fill:url(#linear-gradient-24);}.cls-28{fill:url(#linear-gradient-25);}.cls-29{fill:url(#linear-gradient-26);}.cls-30{fill:url(#linear-gradient-27);}.cls-31{fill:url(#linear-gradient-28);}.cls-32{fill:url(#linear-gradient-29);}.cls-33{fill:url(#linear-gradient-30);}.cls-34{fill:url(#linear-gradient-31);}.cls-35{fill:url(#linear-gradient-32);}.cls-36{fill:url(#linear-gradient-33);}.cls-37{fill:url(#linear-gradient-34);}.cls-38{fill:url(#linear-gradient-35);}.cls-39{fill:url(#linear-gradient-36);}.cls-40{fill:url(#linear-gradient-37);}.cls-41{fill:url(#linear-gradient-38);}.cls-42{fill:url(#linear-gradient-39);}.cls-43{fill:url(#linear-gradient-40);}.cls-44{fill:url(#linear-gradient-41);}.cls-45{fill:url(#linear-gradient-42);}.cls-46{fill:url(#linear-gradient-43);}.cls-47{fill:url(#linear-gradient-44);}.cls-48{fill:url(#linear-gradient-45);}.cls-49{fill:url(#linear-gradient-46);}.cls-50{fill:url(#linear-gradient-47);}.cls-51{fill:#fabf62;}.cls-52{fill:#389eca;}.cls-53{fill:url(#radial-gradient);}.cls-54{fill:url(#linear-gradient-48);}.cls-55{fill:url(#linear-gradient-49);}.cls-56{fill:url(#linear-gradient-50);}.cls-57{fill:url(#linear-gradient-51);}.cls-58{fill:url(#linear-gradient-52);}.cls-59{fill:url(#linear-gradient-53);}.cls-60{fill:url(#linear-gradient-54);}.cls-61{fill:url(#linear-gradient-55);}.cls-62{fill:url(#linear-gradient-56);}.cls-63{fill:url(#linear-gradient-57);}.cls-64{fill:url(#linear-gradient-58);}.cls-65{fill:url(#linear-gradient-59);}.cls-66{fill:url(#linear-gradient-60);}.cls-67{fill:url(#linear-gradient-61);}.cls-68{fill:url(#linear-gradient-62);}.cls-69{fill:url(#linear-gradient-63);}.cls-70{fill:url(#linear-gradient-64);}.cls-71{fill:url(#linear-gradient-65);}.cls-72{fill:url(#linear-gradient-66);}.cls-73{fill:url(#linear-gradient-67);}.cls-74{fill:url(#linear-gradient-68);}.cls-75{fill:url(#linear-gradient-69);}.cls-76{fill:url(#linear-gradient-70);}.cls-77{fill:url(#linear-gradient-71);}.cls-78{fill:url(#linear-gradient-72);}.cls-79{fill:url(#linear-gradient-73);}.cls-80{fill:url(#linear-gradient-74);}.cls-81{fill:url(#linear-gradient-75);}.cls-82{fill:url(#linear-gradient-76);}.cls-83{fill:url(#linear-gradient-77);}.cls-84{fill:url(#linear-gradient-78);}.cls-85{fill:url(#linear-gradient-79);}.cls-86{fill:url(#linear-gradient-80);}.cls-87{fill:url(#linear-gradient-81);}.cls-88{fill:url(#linear-gradient-82);}.cls-89{fill:url(#linear-gradient-83);}.cls-90{fill:url(#linear-gradient-84);}.cls-91{fill:url(#linear-gradient-85);}.cls-92{fill:url(#linear-gradient-86);}.cls-93{fill:url(#linear-gradient-87);}.cls-94{fill:url(#linear-gradient-88);}.cls-95{fill:url(#linear-gradient-89);}.cls-96{fill:url(#linear-gradient-90);}.cls-97{fill:url(#linear-gradient-91);}.cls-98{fill:url(#linear-gradient-92);}.cls-99{fill:url(#linear-gradient-93);}.cls-100{fill:url(#linear-gradient-94);}.cls-101{fill:url(#linear-gradient-95);}.cls-102{fill:url(#linear-gradient-96);}.cls-103{fill:url(#linear-gradient-97);}.cls-104{fill:url(#linear-gradient-98);}.cls-105{fill:url(#linear-gradient-99);}.cls-106{fill:url(#linear-gradient-100);}.cls-107{fill:url(#linear-gradient-101);}.cls-108{fill:url(#linear-gradient-102);}.cls-109{fill:url(#linear-gradient-103);}.cls-110{fill:url(#linear-gradient-104);}.cls-111{fill:url(#linear-gradient-105);}.cls-112{fill:url(#linear-gradient-106);}.cls-113{fill:url(#linear-gradient-107);}.cls-114{fill:url(#linear-gradient-108);}.cls-115{fill:url(#linear-gradient-109);}.cls-116{fill:url(#linear-gradient-110);}.cls-117{fill:url(#linear-gradient-111);}.cls-118{fill:url(#linear-gradient-112);}.cls-119{fill:url(#linear-gradient-113);}.cls-120{fill:url(#linear-gradient-114);}.cls-121{fill:url(#linear-gradient-115);}.cls-122{fill:url(#linear-gradient-116);}.cls-123{fill:url(#linear-gradient-117);}.cls-124{fill:url(#linear-gradient-118);}.cls-125{fill:url(#linear-gradient-119);}.cls-126{fill:url(#linear-gradient-120);}.cls-127{fill:url(#linear-gradient-121);}.cls-128{fill:url(#linear-gradient-122);}.cls-129{fill:url(#linear-gradient-123);}.cls-130{fill:url(#linear-gradient-124);}.cls-131{fill:url(#linear-gradient-125);}.cls-132{fill:url(#linear-gradient-126);}.cls-133{fill:url(#linear-gradient-127);}.cls-134{fill:url(#linear-gradient-128);}.cls-135{fill:url(#linear-gradient-129);}.cls-136{fill:url(#linear-gradient-130);}.cls-137{fill:url(#linear-gradient-131);}.cls-138{fill:url(#linear-gradient-132);}.cls-139{fill:url(#linear-gradient-133);}.cls-140{fill:url(#linear-gradient-134);}.cls-141{fill:url(#linear-gradient-135);}.cls-142{fill:url(#linear-gradient-136);}.cls-143{fill:url(#linear-gradient-137);}.cls-144{fill:url(#linear-gradient-138);}.cls-145{fill:url(#linear-gradient-139);}.cls-146{fill:url(#linear-gradient-140);}.cls-147{fill:url(#linear-gradient-141);}.cls-148{fill:url(#linear-gradient-142);}.cls-149{fill:url(#linear-gradient-143);}.cls-150{fill:url(#linear-gradient-144);}.cls-151{fill:url(#linear-gradient-145);}.cls-152{fill:url(#linear-gradient-146);}.cls-153{fill:url(#linear-gradient-147);}.cls-154{fill:url(#linear-gradient-148);}</style><clipPath id="clip-path"><rect class="cls-1" y="70.82" width="643.77" height="429.18" rx="5" transform="translate(643.77 570.82) rotate(-180)"/></clipPath><linearGradient id="linear-gradient" x1="744.63" y1="504.13" x2="744.63" y2="106.6" gradientTransform="matrix(-1, 0, 0, 1, 750, 0)" gradientUnits="userSpaceOnUse"><stop offset="0" stop-color="#1c3759"/><stop offset="1" stop-color="#111927"/></linearGradient><clipPath id="clip-path-2"><path class="cls-1" d="M379.5,504.13H-368.75c-5.7-34-15.13-70.65.2-104,21.26-46.21,74.09-63.58,132.16-76,23.16-5,47.09-13.19,58.64-30,18.58-27.12-3.58-57.07,7.57-84.59,6-14.77,22.27-26.12,42.82-28.5,13.21-1.53,25.37-1.06,31.34-12.25,4.58-8.57,3.42-19.1,8.42-27.8,8-13.87,27.08-8.53,37-18.1l-.55-22.51c7.28-.74,76.21-.38,83.49-1.11,16.4-1.65,31.84,5.35,40.29,19.69,6.63,11.25,7.78,24.59,13,36.39,8.62,19.36,30.73,21.69,49.11,25.18,29.71,5.65,51.13,25.58,49.76,57.46-.83,19.26-8.09,38.56,4,56.14,11.55,16.84,35.47,25.06,58.64,30,58.07,12.45,110.9,29.82,132.16,76C394.63,433.48,385.2,470.15,379.5,504.13Z"/></clipPath><linearGradient id="linear-gradient-2" x1="2322.21" y1="448.08" x2="2322.21" y2="280.26" gradientTransform="translate(-2114.35)" gradientUnits="userSpaceOnUse"><stop offset="0" stop-color="#06223b"/><stop offset="0.17" stop-color="#0a2946"/><stop offset="0.48" stop-color="#163b63"/><stop offset="0.55" stop-color="#19406b"/><stop offset="0.87" stop-color="#3f6a92"/><stop offset="1" stop-color="#507ca3"/></linearGradient><linearGradient id="linear-gradient-3" x1="638.4" y1="445.64" x2="638.4" y2="356.43" gradientTransform="matrix(-1, 0, 0, 1, 750, 0)" xlink:href="#linear-gradient-2"/><linearGradient id="linear-gradient-4" x1="2181.63" y1="505.08" x2="2181.63" y2="404.15" gradientTransform="translate(-2053.83)" xlink:href="#linear-gradient-2"/><linearGradient id="linear-gradient-5" x1="1267.57" y1="159.64" x2="1325.09" y2="159.64" gradientTransform="matrix(-0.97, -0.22, -0.22, 0.97, 1316.26, 411.33)" gradientUnits="userSpaceOnUse"><stop offset="0" stop-color="#2b6149"/><stop offset="1" stop-color="#357760"/></linearGradient><linearGradient id="linear-gradient-6" x1="1260.56" y1="126.16" x2="1321.83" y2="126.16" xlink:href="#linear-gradient-5"/><linearGradient id="linear-gradient-7" x1="1262.36" y1="141.19" x2="1324.93" y2="141.19" xlink:href="#linear-gradient-5"/><linearGradient id="linear-gradient-8" x1="1234.12" y1="22.38" x2="1242.2" y2="22.38" xlink:href="#linear-gradient-5"/><linearGradient id="linear-gradient-9" x1="1229.96" y1="18.18" x2="1236.23" y2="18.18" xlink:href="#linear-gradient-5"/><linearGradient id="linear-gradient-10" x1="1237.62" y1="27.59" x2="1248.09" y2="27.59" xlink:href="#linear-gradient-5"/><linearGradient id="linear-gradient-11" x1="1241.12" y1="32.08" x2="1254.72" y2="32.08" xlink:href="#linear-gradient-5"/><linearGradient id="linear-gradient-12" x1="1243.78" y1="38.83" x2="1261.37" y2="38.83" xlink:href="#linear-gradient-5"/><linearGradient id="linear-gradient-13" x1="1246.78" y1="45.43" x2="1269.26" y2="45.43" xlink:href="#linear-gradient-5"/><linearGradient id="linear-gradient-14" x1="1252.91" y1="52.68" x2="1276.15" y2="52.68" xlink:href="#linear-gradient-5"/><linearGradient id="linear-gradient-15" x1="1252.94" y1="60.1" x2="1285.02" y2="60.1" xlink:href="#linear-gradient-5"/><linearGradient id="linear-gradient-16" x1="1254.34" y1="69.82" x2="1292.45" y2="69.82" xlink:href="#linear-gradient-5"/><linearGradient id="linear-gradient-17" x1="1255.65" y1="80.21" x2="1299.63" y2="80.21" xlink:href="#linear-gradient-5"/><linearGradient id="linear-gradient-18" x1="1255.71" y1="92.44" x2="1307.84" y2="92.44" xlink:href="#linear-gradient-5"/><linearGradient id="linear-gradient-19" x1="1257.53" y1="108.11" x2="1316.53" y2="108.11" xlink:href="#linear-gradient-5"/><linearGradient id="linear-gradient-20" x1="1270.46" y1="177.22" x2="1324" y2="177.22" xlink:href="#linear-gradient-5"/><linearGradient id="linear-gradient-21" x1="1277.33" y1="196.19" x2="1322.79" y2="196.19" xlink:href="#linear-gradient-5"/><linearGradient id="linear-gradient-22" x1="1239.24" y1="15.37" x2="1245.39" y2="15.37" xlink:href="#linear-gradient-5"/><linearGradient id="linear-gradient-23" x1="1233.31" y1="12.65" x2="1238.68" y2="12.65" xlink:href="#linear-gradient-5"/><linearGradient id="linear-gradient-24" x1="1245.31" y1="17.53" x2="1252.18" y2="17.53" xlink:href="#linear-gradient-5"/><linearGradient id="linear-gradient-25" x1="1252.04" y1="20.65" x2="1258.96" y2="20.65" xlink:href="#linear-gradient-5"/><linearGradient id="linear-gradient-26" x1="1259.23" y1="24.44" x2="1268.03" y2="24.44" xlink:href="#linear-gradient-5"/><linearGradient id="linear-gradient-27" x1="1266.92" y1="30.16" x2="1275.53" y2="30.16" xlink:href="#linear-gradient-5"/><linearGradient id="linear-gradient-28" x1="1274.32" y1="34.82" x2="1286.61" y2="34.82" xlink:href="#linear-gradient-5"/><linearGradient id="linear-gradient-29" x1="1282.79" y1="42.01" x2="1297.15" y2="42.01" xlink:href="#linear-gradient-5"/><linearGradient id="linear-gradient-30" x1="1290.01" y1="48.96" x2="1313.26" y2="48.96" xlink:href="#linear-gradient-5"/><linearGradient id="linear-gradient-31" x1="1297.96" y1="54.91" x2="1321.18" y2="54.91" xlink:href="#linear-gradient-5"/><linearGradient id="linear-gradient-32" x1="1307.4" y1="63.57" x2="1332.27" y2="63.57" xlink:href="#linear-gradient-5"/><linearGradient id="linear-gradient-33" x1="1314.61" y1="85.87" x2="1354.87" y2="85.87" xlink:href="#linear-gradient-5"/><linearGradient id="linear-gradient-34" x1="1320.39" y1="101.98" x2="1365.62" y2="101.98" xlink:href="#linear-gradient-5"/><linearGradient id="linear-gradient-35" x1="1225.26" y1="115.66" x2="1325.86" y2="115.66" xlink:href="#linear-gradient-5"/><linearGradient id="linear-gradient-36" x1="1222.79" y1="12.89" x2="1233.74" y2="12.89" xlink:href="#linear-gradient-5"/><linearGradient id="linear-gradient-37" x1="10.41" y1="833.03" x2="24.84" y2="833.03" gradientTransform="matrix(-0.97, 0.23, 0.23, 0.97, 14.18, -324.01)" gradientUnits="userSpaceOnUse"><stop offset="0" stop-color="#fabf62"/><stop offset="1" stop-color="#d19232"/></linearGradient><linearGradient id="linear-gradient-38" x1="19.9" y1="766.98" x2="34.93" y2="766.98" xlink:href="#linear-gradient-37"/><linearGradient id="linear-gradient-39" x1="16.04" y1="785.56" x2="41.89" y2="785.56" xlink:href="#linear-gradient-37"/><linearGradient id="linear-gradient-40" x1="5.86" y1="779.89" x2="18.65" y2="779.89" xlink:href="#linear-gradient-37"/><linearGradient id="linear-gradient-41" x1="12.06" y1="806.69" x2="39.92" y2="806.69" xlink:href="#linear-gradient-37"/><linearGradient id="linear-gradient-42" x1="-5.53" y1="799.68" x2="12.61" y2="799.68" xlink:href="#linear-gradient-37"/><linearGradient id="linear-gradient-43" x1="10.83" y1="827.89" x2="34.02" y2="827.89" xlink:href="#linear-gradient-37"/><linearGradient id="linear-gradient-44" x1="-4.24" y1="824.78" x2="11.13" y2="824.78" xlink:href="#linear-gradient-37"/><linearGradient id="linear-gradient-45" x1="2.65" y1="844.89" x2="12.38" y2="844.89" xlink:href="#linear-gradient-37"/><linearGradient id="linear-gradient-46" x1="-1458.41" y1="3834.48" x2="-1352.87" y2="3817.06" gradientTransform="matrix(0.94, 0.34, -0.27, 0.91, 2625.77, -2560.22)" gradientUnits="userSpaceOnUse"><stop offset="0" stop-color="#526e38"/><stop offset="1" stop-color="#5e8444"/></linearGradient><linearGradient id="linear-gradient-47" x1="-1372.23" y1="3872.27" x2="-1423.31" y2="3806.37" gradientTransform="matrix(0.94, 0.34, -0.27, 0.91, 2625.77, -2560.22)" gradientUnits="userSpaceOnUse"><stop offset="0" stop-color="#81a65e"/><stop offset="1" stop-color="#3a5726"/></linearGradient><radialGradient id="radial-gradient" cx="608.07" cy="225.63" r="36.23" gradientTransform="matrix(-1, 0, 0, 1, 750, 0)" gradientUnits="userSpaceOnUse"><stop offset="0" stop-color="#f8f8f8"/><stop offset="1" stop-color="#cfcfcf"/></radialGradient><linearGradient id="linear-gradient-48" x1="1437.42" y1="2274.51" x2="1475.14" y2="2274.51" gradientTransform="translate(-676.14 -2190.4) rotate(18.43)" xlink:href="#linear-gradient-37"/><linearGradient id="linear-gradient-49" x1="1469.37" y1="2208.09" x2="1479.92" y2="2208.09" gradientTransform="translate(-676.14 -2190.4) rotate(18.43)" xlink:href="#linear-gradient-37"/><linearGradient id="linear-gradient-50" x1="1455.96" y1="2224.86" x2="1472.51" y2="2224.86" gradientTransform="translate(-676.14 -2190.4) rotate(18.43)" xlink:href="#linear-gradient-37"/><linearGradient id="linear-gradient-51" x1="1471.63" y1="2227.65" x2="1494.01" y2="2227.65" gradientTransform="translate(-676.14 -2190.4) rotate(18.43)" xlink:href="#linear-gradient-37"/><linearGradient id="linear-gradient-52" x1="1446.72" y1="2246.3" x2="1468.2" y2="2246.3" gradientTransform="translate(-676.14 -2190.4) rotate(18.43)" xlink:href="#linear-gradient-37"/><linearGradient id="linear-gradient-53" x1="1467.47" y1="2250" x2="1495.74" y2="2250" gradientTransform="translate(-676.14 -2190.4) rotate(18.43)" xlink:href="#linear-gradient-37"/><linearGradient id="linear-gradient-54" x1="1461.28" y1="2273.12" x2="1484.9" y2="2273.12" gradientTransform="translate(-676.14 -2190.4) rotate(18.43)" xlink:href="#linear-gradient-37"/><linearGradient id="linear-gradient-55" x1="816.64" y1="356.05" x2="862.63" y2="356.05" gradientTransform="matrix(-0.98, -0.2, -0.2, 0.98, 1295.84, 316.84)" xlink:href="#linear-gradient-5"/><linearGradient id="linear-gradient-56" x1="861.49" y1="240.34" x2="865.95" y2="240.34" gradientTransform="matrix(-0.98, -0.2, -0.2, 0.98, 1295.84, 316.84)" xlink:href="#linear-gradient-5"/><linearGradient id="linear-gradient-57" x1="865.33" y1="235.61" x2="869.22" y2="235.61" gradientTransform="matrix(-0.98, -0.2, -0.2, 0.98, 1295.84, 316.84)" xlink:href="#linear-gradient-5"/><linearGradient id="linear-gradient-58" x1="856.81" y1="245.44" x2="862.31" y2="245.44" gradientTransform="matrix(-0.98, -0.2, -0.2, 0.98, 1295.84, 316.84)" xlink:href="#linear-gradient-5"/><linearGradient id="linear-gradient-59" x1="853.03" y1="251.12" x2="859.42" y2="251.12" gradientTransform="matrix(-0.98, -0.2, -0.2, 0.98, 1295.84, 316.84)" xlink:href="#linear-gradient-5"/><linearGradient id="linear-gradient-60" x1="846.99" y1="257.74" x2="856.09" y2="257.74" gradientTransform="matrix(-0.98, -0.2, -0.2, 0.98, 1295.84, 316.84)" xlink:href="#linear-gradient-5"/><linearGradient id="linear-gradient-61" x1="842.44" y1="265.17" x2="853.27" y2="265.17" gradientTransform="matrix(-0.98, -0.2, -0.2, 0.98, 1295.84, 316.84)" xlink:href="#linear-gradient-5"/><linearGradient id="linear-gradient-62" x1="837.85" y1="274.86" x2="850.97" y2="274.86" gradientTransform="matrix(-0.98, -0.2, -0.2, 0.98, 1295.84, 316.84)" xlink:href="#linear-gradient-5"/><linearGradient id="linear-gradient-63" x1="835.13" y1="281.75" x2="849.47" y2="281.75" gradientTransform="matrix(-0.98, -0.2, -0.2, 0.98, 1295.84, 316.84)" xlink:href="#linear-gradient-5"/><linearGradient id="linear-gradient-64" x1="827.57" y1="293.2" x2="849.29" y2="293.2" gradientTransform="matrix(-0.98, -0.2, -0.2, 0.98, 1295.84, 316.84)" xlink:href="#linear-gradient-5"/><linearGradient id="linear-gradient-65" x1="824.58" y1="302.24" x2="850.2" y2="302.24" gradientTransform="matrix(-0.98, -0.2, -0.2, 0.98, 1295.84, 316.84)" xlink:href="#linear-gradient-5"/><linearGradient id="linear-gradient-66" x1="818.15" y1="317.81" x2="852.5" y2="317.81" gradientTransform="matrix(-0.98, -0.2, -0.2, 0.98, 1295.84, 316.84)" xlink:href="#linear-gradient-5"/><linearGradient id="linear-gradient-67" x1="816.22" y1="333.43" x2="857.47" y2="333.43" gradientTransform="matrix(-0.98, -0.2, -0.2, 0.98, 1295.84, 316.84)" xlink:href="#linear-gradient-5"/><linearGradient id="linear-gradient-68" x1="864.36" y1="243.42" x2="873.1" y2="243.42" gradientTransform="matrix(-0.98, -0.2, -0.2, 0.98, 1295.84, 316.84)" xlink:href="#linear-gradient-5"/><linearGradient id="linear-gradient-69" x1="867.51" y1="237.74" x2="874.85" y2="237.74" gradientTransform="matrix(-0.98, -0.2, -0.2, 0.98, 1295.84, 316.84)" xlink:href="#linear-gradient-5"/><linearGradient id="linear-gradient-70" x1="861.42" y1="249.14" x2="872.82" y2="249.14" gradientTransform="matrix(-0.98, -0.2, -0.2, 0.98, 1295.84, 316.84)" xlink:href="#linear-gradient-5"/><linearGradient id="linear-gradient-71" x1="858.25" y1="255.23" x2="872.26" y2="255.23" gradientTransform="matrix(-0.98, -0.2, -0.2, 0.98, 1295.84, 316.84)" xlink:href="#linear-gradient-5"/><linearGradient id="linear-gradient-72" x1="855.43" y1="262.88" x2="871.93" y2="262.88" gradientTransform="matrix(-0.98, -0.2, -0.2, 0.98, 1295.84, 316.84)" xlink:href="#linear-gradient-5"/><linearGradient id="linear-gradient-73" x1="852.81" y1="270.57" x2="870.27" y2="270.57" gradientTransform="matrix(-0.98, -0.2, -0.2, 0.98, 1295.84, 316.84)" xlink:href="#linear-gradient-5"/><linearGradient id="linear-gradient-74" x1="851.11" y1="278.66" x2="870.95" y2="278.66" gradientTransform="matrix(-0.98, -0.2, -0.2, 0.98, 1295.84, 316.84)" xlink:href="#linear-gradient-5"/><linearGradient id="linear-gradient-75" x1="849.94" y1="287.99" x2="872.19" y2="287.99" gradientTransform="matrix(-0.98, -0.2, -0.2, 0.98, 1295.84, 316.84)" xlink:href="#linear-gradient-5"/><linearGradient id="linear-gradient-76" x1="849.67" y1="297.99" x2="876.74" y2="297.99" gradientTransform="matrix(-0.98, -0.2, -0.2, 0.98, 1295.84, 316.84)" xlink:href="#linear-gradient-5"/><linearGradient id="linear-gradient-77" x1="850.42" y1="305.49" x2="880.07" y2="305.49" gradientTransform="matrix(-0.98, -0.2, -0.2, 0.98, 1295.84, 316.84)" xlink:href="#linear-gradient-5"/><linearGradient id="linear-gradient-78" x1="866.9" y1="357.19" x2="900.03" y2="357.19" gradientTransform="matrix(-0.98, -0.2, -0.2, 0.98, 1295.84, 316.84)" xlink:href="#linear-gradient-5"/><linearGradient id="linear-gradient-79" x1="852.9" y1="315.43" x2="885.07" y2="315.43" gradientTransform="matrix(-0.98, -0.2, -0.2, 0.98, 1295.84, 316.84)" xlink:href="#linear-gradient-5"/><linearGradient id="linear-gradient-80" x1="856.19" y1="332.25" x2="891.17" y2="332.25" gradientTransform="matrix(-0.98, -0.2, -0.2, 0.98, 1295.84, 316.84)" xlink:href="#linear-gradient-5"/><linearGradient id="linear-gradient-81" x1="873.29" y1="374.47" x2="904.23" y2="374.47" gradientTransform="matrix(-0.98, -0.2, -0.2, 0.98, 1295.84, 316.84)" xlink:href="#linear-gradient-5"/><linearGradient id="linear-gradient-82" x1="860.86" y1="343.73" x2="894.72" y2="343.73" gradientTransform="matrix(-0.98, -0.2, -0.2, 0.98, 1295.84, 316.84)" xlink:href="#linear-gradient-5"/><linearGradient id="linear-gradient-83" x1="879.97" y1="391.39" x2="913.42" y2="391.39" gradientTransform="matrix(-0.98, -0.2, -0.2, 0.98, 1295.84, 316.84)" xlink:href="#linear-gradient-5"/><linearGradient id="linear-gradient-84" x1="848.87" y1="331.63" x2="895.44" y2="331.63" gradientTransform="matrix(-0.98, -0.2, -0.2, 0.98, 1295.84, 316.84)" xlink:href="#linear-gradient-5"/><linearGradient id="linear-gradient-85" x1="868.63" y1="231.29" x2="875.31" y2="231.29" gradientTransform="matrix(-0.98, -0.2, -0.2, 0.98, 1295.84, 316.84)" xlink:href="#linear-gradient-5"/><linearGradient id="linear-gradient-86" x1="-1349.94" y1="2959.85" x2="-1291.48" y2="2868.44" gradientTransform="matrix(0.13, 0.99, 0.99, -0.13, -2722.24, 2190.75)" xlink:href="#linear-gradient-46"/><linearGradient id="linear-gradient-87" x1="-1584.03" y1="3097.98" x2="-1463.49" y2="3078.08" gradientTransform="matrix(0.83, -0.56, 0.58, 0.76, -512.52, -2733.93)" gradientUnits="userSpaceOnUse"><stop offset="0" stop-color="#8bab52"/><stop offset="1" stop-color="#86ad50"/></linearGradient><linearGradient id="linear-gradient-88" x1="-1370.3" y1="2987.98" x2="-1340.26" y2="2956.74" gradientTransform="matrix(0.13, 0.99, 0.99, -0.13, -2722.24, 2190.75)" xlink:href="#linear-gradient-47"/><linearGradient id="linear-gradient-89" x1="-4068.51" y1="917.92" x2="-4101.94" y2="798.35" gradientTransform="translate(4196.42 1739.73) rotate(29.2)" gradientUnits="userSpaceOnUse"><stop offset="0" stop-color="#287f9c"/><stop offset="1" stop-color="#389eca"/></linearGradient><linearGradient id="linear-gradient-90" x1="-4112.04" y1="803.06" x2="-4117.63" y2="783.08" xlink:href="#linear-gradient-89"/><linearGradient id="linear-gradient-91" x1="-4446.58" y1="1204.61" x2="-4449.52" y2="1194.09" gradientTransform="matrix(0.81, 0.59, -0.59, 0.81, 4506.38, 2096.87)" xlink:href="#linear-gradient-89"/><linearGradient id="linear-gradient-92" x1="-3560.64" y1="335.28" x2="-3565.25" y2="318.78" gradientTransform="translate(3692.99 1311.19) rotate(19.37)" xlink:href="#linear-gradient-89"/><linearGradient id="linear-gradient-93" x1="-4754.03" y1="1712.94" x2="-4757.19" y2="1701.65" gradientTransform="matrix(0.72, 0.7, -0.7, 0.72, 4810.03, 2551.16)" xlink:href="#linear-gradient-89"/><linearGradient id="linear-gradient-94" x1="-3429.46" y1="265.52" x2="-3434.7" y2="246.8" gradientTransform="translate(3579.58 1236.19) rotate(17.39)" xlink:href="#linear-gradient-89"/><linearGradient id="linear-gradient-95" x1="-4738.2" y1="1714.53" x2="-4740.58" y2="1706.01" gradientTransform="translate(4809.72 2540.21) rotate(44.07)" xlink:href="#linear-gradient-89"/><linearGradient id="linear-gradient-96" x1="-3369.54" y1="242.2" x2="-3373.18" y2="229.17" gradientTransform="translate(3525.62 1204.18) rotate(16.5)" xlink:href="#linear-gradient-89"/><linearGradient id="linear-gradient-97" x1="-4085.28" y1="850.83" x2="-4087.14" y2="844.17" xlink:href="#linear-gradient-89"/><linearGradient id="linear-gradient-98" x1="-4077.21" y1="847.55" x2="-4080.19" y2="836.88" xlink:href="#linear-gradient-89"/><linearGradient id="linear-gradient-99" x1="-1507.36" y1="7908.57" x2="-1423.69" y2="7908.57" gradientTransform="matrix(0.55, 0.84, 0.84, -0.55, -5470.96, 6072.35)" xlink:href="#linear-gradient-37"/><linearGradient id="linear-gradient-100" x1="-1511.46" y1="7951.49" x2="-1501.22" y2="7951.49" gradientTransform="matrix(0.55, 0.84, 0.84, -0.55, -5470.96, 6072.35)" xlink:href="#linear-gradient-37"/><linearGradient id="linear-gradient-101" x1="-421.57" y1="7984.68" x2="-409.71" y2="7984.68" gradientTransform="matrix(0.73, 0.68, 0.68, -0.73, -4814.78, 6574.81)" xlink:href="#linear-gradient-37"/><linearGradient id="linear-gradient-102" x1="-948.03" y1="7987.18" x2="-924.41" y2="7987.18" gradientTransform="matrix(0.65, 0.76, 0.76, -0.65, -5137.83, 6355.9)" xlink:href="#linear-gradient-37"/><linearGradient id="linear-gradient-103" x1="-507.33" y1="7976.92" x2="-493.11" y2="7976.92" gradientTransform="matrix(0.72, 0.7, 0.7, -0.72, -4880.96, 6536.08)" xlink:href="#linear-gradient-37"/><linearGradient id="linear-gradient-104" x1="-1511.51" y1="7914.36" x2="-1483.45" y2="7914.36" gradientTransform="matrix(0.55, 0.84, 0.84, -0.55, -5470.96, 6072.35)" xlink:href="#linear-gradient-37"/><linearGradient id="linear-gradient-105" x1="-311.07" y1="7889.46" x2="-300.98" y2="7889.46" gradientTransform="matrix(0.75, 0.66, 0.66, -0.75, -4651.27, 6623.66)" xlink:href="#linear-gradient-37"/><linearGradient id="linear-gradient-106" x1="-1494.61" y1="7899.71" x2="-1471.67" y2="7899.71" gradientTransform="matrix(0.55, 0.84, 0.84, -0.55, -5470.96, 6072.35)" xlink:href="#linear-gradient-37"/><linearGradient id="linear-gradient-107" x1="638.87" y1="415.77" x2="643.33" y2="415.77" gradientTransform="matrix(-1, 0, 0, 1, 750, 0)" xlink:href="#linear-gradient-5"/><linearGradient id="linear-gradient-108" x1="642.52" y1="412.01" x2="646.31" y2="412.01" gradientTransform="matrix(-1, 0, 0, 1, 750, 0)" xlink:href="#linear-gradient-5"/><linearGradient id="linear-gradient-109" x1="634.37" y1="419.48" x2="639.88" y2="419.48" gradientTransform="matrix(-1, 0, 0, 1, 750, 0)" xlink:href="#linear-gradient-5"/><linearGradient id="linear-gradient-110" x1="630.7" y1="423.74" x2="637.02" y2="423.74" gradientTransform="matrix(-1, 0, 0, 1, 750, 0)" xlink:href="#linear-gradient-5"/><linearGradient id="linear-gradient-111" x1="624.69" y1="428.18" x2="633.37" y2="428.18" gradientTransform="matrix(-1, 0, 0, 1, 750, 0)" xlink:href="#linear-gradient-5"/><linearGradient id="linear-gradient-112" x1="619.99" y1="433.44" x2="629.72" y2="433.44" gradientTransform="matrix(-1, 0, 0, 1, 750, 0)" xlink:href="#linear-gradient-5"/><linearGradient id="linear-gradient-113" x1="614.43" y1="440.31" x2="626.14" y2="440.31" gradientTransform="matrix(-1, 0, 0, 1, 750, 0)" xlink:href="#linear-gradient-5"/><linearGradient id="linear-gradient-114" x1="611.1" y1="445.27" x2="622.12" y2="445.27" gradientTransform="matrix(-1, 0, 0, 1, 750, 0)" xlink:href="#linear-gradient-5"/><linearGradient id="linear-gradient-115" x1="602.07" y1="452.48" x2="618.74" y2="452.48" gradientTransform="matrix(-1, 0, 0, 1, 750, 0)" xlink:href="#linear-gradient-5"/><linearGradient id="linear-gradient-116" x1="597.59" y1="460.03" x2="615.76" y2="460.03" gradientTransform="matrix(-1, 0, 0, 1, 750, 0)" xlink:href="#linear-gradient-5"/><linearGradient id="linear-gradient-117" x1="587.52" y1="469.28" x2="612.6" y2="469.28" gradientTransform="matrix(-1, 0, 0, 1, 750, 0)" xlink:href="#linear-gradient-5"/><linearGradient id="linear-gradient-118" x1="580.59" y1="480.53" x2="607.49" y2="480.53" gradientTransform="matrix(-1, 0, 0, 1, 750, 0)" xlink:href="#linear-gradient-5"/><linearGradient id="linear-gradient-119" x1="569.72" y1="498.29" x2="603.7" y2="498.29" gradientTransform="matrix(-1, 0, 0, 1, 750, 0)" xlink:href="#linear-gradient-5"/><linearGradient id="linear-gradient-120" x1="641.91" y1="418.92" x2="650.53" y2="418.92" gradientTransform="matrix(-1, 0, 0, 1, 750, 0)" xlink:href="#linear-gradient-5"/><linearGradient id="linear-gradient-121" x1="644.81" y1="414.35" x2="651.95" y2="414.35" gradientTransform="matrix(-1, 0, 0, 1, 750, 0)" xlink:href="#linear-gradient-5"/><linearGradient id="linear-gradient-122" x1="639.02" y1="423.66" x2="650.4" y2="423.66" gradientTransform="matrix(-1, 0, 0, 1, 750, 0)" xlink:href="#linear-gradient-5"/><linearGradient id="linear-gradient-123" x1="635.7" y1="428.78" x2="649.83" y2="428.78" gradientTransform="matrix(-1, 0, 0, 1, 750, 0)" xlink:href="#linear-gradient-5"/><linearGradient id="linear-gradient-124" x1="632.4" y1="434.89" x2="649.25" y2="434.89" gradientTransform="matrix(-1, 0, 0, 1, 750, 0)" xlink:href="#linear-gradient-5"/><linearGradient id="linear-gradient-125" x1="628.69" y1="441.29" x2="647.05" y2="441.29" gradientTransform="matrix(-1, 0, 0, 1, 750, 0)" xlink:href="#linear-gradient-5"/><linearGradient id="linear-gradient-126" x1="625.74" y1="448.19" x2="646.81" y2="448.19" gradientTransform="matrix(-1, 0, 0, 1, 750, 0)" xlink:href="#linear-gradient-5"/><linearGradient id="linear-gradient-127" x1="621.97" y1="456.52" x2="646.36" y2="456.52" gradientTransform="matrix(-1, 0, 0, 1, 750, 0)" xlink:href="#linear-gradient-5"/><linearGradient id="linear-gradient-128" x1="619.15" y1="464.52" x2="648.07" y2="464.52" gradientTransform="matrix(-1, 0, 0, 1, 750, 0)" xlink:href="#linear-gradient-5"/><linearGradient id="linear-gradient-129" x1="615.05" y1="474.74" x2="651.38" y2="474.74" gradientTransform="matrix(-1, 0, 0, 1, 750, 0)" xlink:href="#linear-gradient-5"/><linearGradient id="linear-gradient-130" x1="611.82" y1="484.8" x2="655.34" y2="484.8" gradientTransform="matrix(-1, 0, 0, 1, 750, 0)" xlink:href="#linear-gradient-5"/><linearGradient id="linear-gradient-131" x1="606.11" y1="498.08" x2="652.28" y2="498.08" gradientTransform="matrix(-1, 0, 0, 1, 750, 0)" xlink:href="#linear-gradient-5"/><linearGradient id="linear-gradient-132" x1="596.7" y1="471.77" x2="651.05" y2="471.77" gradientTransform="matrix(-1, 0, 0, 1, 750, 0)" xlink:href="#linear-gradient-5"/><linearGradient id="linear-gradient-133" x1="645.68" y1="408.8" x2="651.77" y2="408.8" gradientTransform="matrix(-1, 0, 0, 1, 750, 0)" xlink:href="#linear-gradient-5"/><linearGradient id="linear-gradient-134" x1="-1085.53" y1="7531.34" x2="-1006.42" y2="7531.34" gradientTransform="matrix(0.84, -0.55, -0.55, -0.84, 5094.08, 6204.1)" xlink:href="#linear-gradient-89"/><linearGradient id="linear-gradient-135" x1="-1017.75" y1="7548.29" x2="-1000.89" y2="7548.29" gradientTransform="matrix(0.84, -0.55, -0.55, -0.84, 5094.08, 6204.1)" xlink:href="#linear-gradient-89"/><linearGradient id="linear-gradient-136" x1="-1028.01" y1="7535.64" x2="-1011.95" y2="7535.64" gradientTransform="matrix(0.84, -0.55, -0.55, -0.84, 5094.08, 6204.1)" xlink:href="#linear-gradient-89"/><linearGradient id="linear-gradient-137" x1="-1028.54" y1="7549.04" x2="-1016.57" y2="7549.04" gradientTransform="matrix(0.84, -0.55, -0.55, -0.84, 5094.08, 6204.1)" xlink:href="#linear-gradient-89"/><linearGradient id="linear-gradient-138" x1="-1041.71" y1="7530.21" x2="-1023.31" y2="7530.21" gradientTransform="matrix(0.84, -0.55, -0.55, -0.84, 5094.08, 6204.1)" xlink:href="#linear-gradient-89"/><linearGradient id="linear-gradient-139" x1="-1041.91" y1="7545.2" x2="-1030.54" y2="7545.2" gradientTransform="matrix(0.84, -0.55, -0.55, -0.84, 5094.08, 6204.1)" xlink:href="#linear-gradient-89"/><linearGradient id="linear-gradient-140" x1="-1054.73" y1="7523.68" x2="-1037.93" y2="7523.68" gradientTransform="matrix(0.84, -0.55, -0.55, -0.84, 5094.08, 6204.1)" xlink:href="#linear-gradient-89"/><linearGradient id="linear-gradient-141" x1="-1057.06" y1="7535.08" x2="-1048.17" y2="7535.08" gradientTransform="matrix(0.84, -0.55, -0.55, -0.84, 5094.08, 6204.1)" xlink:href="#linear-gradient-89"/><linearGradient id="linear-gradient-142" x1="1167.28" y1="562.2" x2="1146.01" y2="591.34" gradientTransform="matrix(0.33, -0.94, 0.94, 0.33, -927.41, 1268.41)" xlink:href="#linear-gradient-89"/><linearGradient id="linear-gradient-143" x1="1205.65" y1="585.53" x2="1199.3" y2="594.23" gradientTransform="matrix(0.33, -0.94, 0.94, 0.33, -927.41, 1268.41)" xlink:href="#linear-gradient-89"/><linearGradient id="linear-gradient-144" x1="1193.56" y1="582.91" x2="1184.87" y2="594.81" gradientTransform="matrix(0.33, -0.94, 0.94, 0.33, -927.41, 1268.41)" xlink:href="#linear-gradient-89"/><linearGradient id="linear-gradient-145" x1="1201.32" y1="570.78" x2="1192.31" y2="583.11" gradientTransform="matrix(0.33, -0.94, 0.94, 0.33, -927.41, 1268.41)" xlink:href="#linear-gradient-89"/><linearGradient id="linear-gradient-146" x1="1179.59" y1="576.9" x2="1170.07" y2="589.95" gradientTransform="matrix(0.33, -0.94, 0.94, 0.33, -927.41, 1268.41)" xlink:href="#linear-gradient-89"/><linearGradient id="linear-gradient-147" x1="1190.2" y1="560.95" x2="1179.04" y2="576.25" gradientTransform="matrix(0.33, -0.94, 0.94, 0.33, -927.41, 1268.41)" xlink:href="#linear-gradient-89"/><linearGradient id="linear-gradient-148" x1="1164.35" y1="572.74" x2="1156.95" y2="582.88" gradientTransform="matrix(0.33, -0.94, 0.94, 0.33, -927.41, 1268.41)" xlink:href="#linear-gradient-89"/></defs><title>design copy 6</title><g class="cls-2"><path class="cls-3" d="M379.5,504.13H-368.75c-5.7-34-15.13-70.65.2-104,21.26-46.21,74.09-63.58,132.16-76,23.16-5,47.09-13.19,58.64-30,18.58-27.12-3.58-57.07,7.57-84.59,6-14.77,22.27-26.12,42.82-28.5,13.21-1.53,25.37-1.06,31.34-12.25,4.58-8.57,3.42-19.1,8.42-27.8,8-13.87,27.08-8.53,37-18.1l14,.78c16.8,4.61,17-10.38,24.71-13.08,17.46-6.1,37.22-5.48,53.26,4.27,13.07,7.94,20.2,22,25.84,35.66,5.43,13.16,14.69,20.09,28.89,23,12.67,2.58,26.07,4.63,38.72,7,29.71,5.65,51.13,25.58,49.76,57.46-.83,19.26-8.09,38.56,4,56.14,11.55,16.84,35.47,25.06,58.64,30,58.07,12.45,110.9,29.82,132.16,76C394.63,433.48,385.2,470.15,379.5,504.13Z"/><g class="cls-4"><path class="cls-5" d="M-62.39,361s1.37-1,1.64-.8c2.69,2.29,4.75,3.65,7.64,3.75,6.6.21,12.13-11.11,18.76-10,12.27,2.1,26.67,12.21,39.06,5.68,7-3.68,13.35-12.56,20.33-16.79,4.83-2.93,9.4-7.07,14-11.57,9.78-9.54,18.38-22.09,29.69-28.2,4.12-2.23,12.73-11.88,16.21-16.64,4.7-6.45,6.92-7.63,13.33-4.47,7.47,3.69,8.44-2.23,20.93,11.57,4.59,5.06,9.64,12.68,15.39,12.36,4.11-.23,5.63-.29,9.55,3.93,3.35,3.61,5.68,12.14,9.18,16.05s7.09,4.64,10.91,5.88a123.48,123.48,0,0,1,14.68,6.33c6.93,3.32,12.4,9,19.17,12.64,11.92,6.35,20.29-2.82,31.66-4.3,7.8-1,13.28,4.16,18,9.75,20.28,24.12,45.74,11.34,72.37,8.66a68.63,68.63,0,0,1,23.54,1.28c8.43,2.09,17.13,3.74,25.84,2.7,6.84-.83,13.45-3.28,20.33-3.68a22,22,0,0,1,15.4,4.74c4.94,3.89,9.88,6.14,15.95,8.37,6.77,2.48,14.92.94,21.63-2.33,7.25-3.53,14.38-8.71,21.72-11.05,4.62-1.48,9.78,1.86,13.58-6.56v89.8H-62.39Z"/><path class="cls-6" d="M-161.59,445.64l-2.17-55.86c14.33,0,36.82-1.38,50.63-4.18,13.51-2.75,23.36-5.18,37.5-3.22,15.3,2.13,30.4-.29,45.6.27,5.15.18,9.65,2.19,14.62,3.59,7.06,2,11.39.93,17.85.68,4.54-.17,7.8,2.6,12,3.37,4.74.86,13.27.79,17.62-.85,9.35-3.53,18.34-5.85,27.36-10,10.73-5,15.29-13,26.49-15.73,3-.74,9.82-5,10.84-5.51a22.47,22.47,0,0,1,3.89-1c3.32-.93,9.07,3.33,13.16,4.11,3.72.72,4.14.22,7.14,2.53s7.41,5,10.88,7.31c5.74,3.78,12.92,7.13,21.58,10.7,7.33,3,14.88,8.79,21.69,6.16,7.3-2.84,5.43-3,15.29-8.5,5.36-3,10-8.56,15.34-5.39,6,3.57,12,6.29,17.76,10.19,11.18,7.53,28,15.55,40.06,10.3,17.25-7.53,33.27-11.37,45.19-18.65C320,369,324.29,360.09,337.3,357c6.6-1.57,10.73.33,16.54,3.47,6.08,3.3,12.45,7,18.37,10.55,5,3,8.05,7.26,14.12,8.52-.44,8.32-1.83,16-1.25,24.44.52,7.64,2.14,15.24,1.84,22.93-2.63-.94-4.56,0-7.71.78-11.55,2.83-22.32,8-34,10.46-35.67,7.39-72.93-.15-108.92,3.54l-3.17.34v3.62Z"/><path class="cls-7" d="M423.25,432c-4.75-.13-9.18-2.28-13-4-7.81-3.43-15.91-5.82-24-8.95-7.2-2.79-13.49,2.1-20.73,4.73-13.33,4.83-10.8,5-20.68,7.46-9.19,2.32-19.4-2.75-29.3-5.4-11.72-3.14-21.42-6.08-29.18-9.41-4.69-2-10.57-4.37-14.7-6.42S267,408.5,262,407.87c-5.53-.69-13.31-4.42-17.79-3.61a43.23,43.23,0,0,0-5.26.9c-1.38.49-10.64,4.2-14.65,4.84-15.15,2.43-21.31,9.47-35.81,13.83-12.19,3.66-24.35,5.71-37,8.81-5.88,1.44-17.42,1.5-23.81.74-5.7-.68-10.1-3.11-16.24-3-8.74.22-14.59,1.15-24.13-.59-6.72-1.24-12.8-3-19.76-3.16-20.55-.49-41,1.63-61.65-.23-19.1-1.73-27.93,3.34-46-.18-11.56-2.26-17.61-4.55-30.46-6.57-4.3-.68-13.14.3-22.7,3-7.5,2.11-10.2,1.8-23.88,3.89-5.92.9-16.69,2.8-22.7,3.72s-16.34-2.83-22.44-2.15c-3.59.4-2.17,11.29-5,9.36a18.14,18.14,0,0,0-.2,6.05c1.21,13.13,5.81,47,2.48,60.4a6.72,6.72,0,0,1,3.75-.37c12.63,2.8,584.52.85,584.52.85Z"/></g><path class="cls-8" d="M-12.34,277.85a7.79,7.79,0,0,1,1.89-3.71,14.68,14.68,0,0,1,3.14-2.6c4.65-2.93,10.1-2.77,15.15-3a137.84,137.84,0,0,1,13.79.2c4.56.26,9.1.7,13.65,1.21a45.05,45.05,0,0,1,7.5,1.81c2.52.78,4.57,1.51,4.68,1.52-.18.09-2.35,1.43-2.77,1.7-4.93,3.37-12.17,3.51-18.71,4.54-3.83.61-8.25,1.4-12.55,2.32-2.17.45-4.36.94-6.5,1.42s-4.18,1-6.13,1.45A11.43,11.43,0,0,1-7,283.76a23.35,23.35,0,0,1-5.7-4.14C-13.27,279.07-12.45,278.6-12.34,277.85Z"/><path class="cls-9" d="M-.39,242.5c4.62-8.16,8.54-8.73,15.48-7.86,3,.37,7.33,1.21,11.55,2.16s8.4,2,11.29,2.81c5.74,1.49,11.74,2.88,16.94,5.91,1.51.86,5.18,3.23,5.39,3.3l-1.22.37-1.61.56c-3.54,1.16-7.34,1.17-11.55.82-3.54-.27-7.08-.45-10.73-.63s-7.23-.25-10.92-.33-7.23.07-10.91.08c-3.37,0-7.92.67-10.46-2-1.24-1.27-2.58-4.15-3.94-4.22C-1.89,243.48-.75,243.15-.39,242.5Z"/><path class="cls-10" d="M-8.36,260.09a9.79,9.79,0,0,0,.56.91A12.18,12.18,0,0,0-6,263.13a14.4,14.4,0,0,0,7.83,3.73,73.07,73.07,0,0,0,14.79.17c4.87-.4,9.82-1,14.47-1.7,3.31-.44,6.56-.92,9.66-1.53a75.63,75.63,0,0,0,9.1-2.26c2-.68,4.6-3.14,6.76-5a11.37,11.37,0,0,1-1.83-.6c-2.17-.69-4.33-1.31-6.53-1.8A58.45,58.45,0,0,0,39.52,253c-3.55-.22-7.13-.23-10.77-.4s-7.43-.23-11.21-.35c-5.22-.16-10.33-.63-15.61-.56a9.29,9.29,0,0,0-6,2.71A20.11,20.11,0,0,0-8.36,260.09Z"/><path class="cls-11" d="M100.55,155.12a2.82,2.82,0,0,0,1.86,3.65c1.67.68,3.08,1.91,5.06,1.46.25-.29.08-.63.46-1.31s-.35-1.89-.75-2.5a13.56,13.56,0,0,0-2.73-2.67C104.13,153.5,102.47,153.75,100.55,155.12Z"/><path class="cls-12" d="M107.22,152.73a5.13,5.13,0,0,0-.2,1.49,1.82,1.82,0,0,0,1.36,1.67,10.92,10.92,0,0,0,2,.58,4.28,4.28,0,0,0,2.49-.54c-.31-.27-.15-.93-.09-1.14.11-.37-.48-1.39-.89-1.9a16.59,16.59,0,0,0-1.16-1.49C110.55,151.17,108.77,151.07,107.22,152.73Z"/><path class="cls-13" d="M93.89,157.83s-.14.55-.23,1.18c-.23,1.67.52,2.07,1.82,3s2.78,1.84,4.23,2.69a3.54,3.54,0,0,0,3.32.12,3.64,3.64,0,0,1-.09-1.52,2.75,2.75,0,0,0-.31-1.83,26.81,26.81,0,0,0-4.31-4.27C97.81,156.76,96.8,156.55,93.89,157.83Z"/><path class="cls-14" d="M87,160.75a5.28,5.28,0,0,0-.71,1.09c-1.05,2.19.45,3.67,2.51,4.72a20.82,20.82,0,0,0,3.28,1.28c1.09.37,2.1.65,2.79.85a8.39,8.39,0,0,0,3.68.12,5,5,0,0,0-.06-2A4.08,4.08,0,0,0,97,165.14c-2.06-1.57-4.51-3.18-5.85-5.46C90.93,159.34,89.62,159.55,87,160.75Z"/><path class="cls-15" d="M78.44,165.83a6,6,0,0,0-.3,2.27,3.82,3.82,0,0,0,1,1.84A14.6,14.6,0,0,0,84,173.16a43.14,43.14,0,0,0,6.37,2.49c.31.08,3.69,1,3.67.72a9.08,9.08,0,0,0-2.17-4.63c-1.19-1.14-2.51-2.16-3.7-3.32s-2.69-2.38-3.86-3.69c-.77-.85-1.72-1.68-3.06-1.18a5.13,5.13,0,0,0-1.6,1C79.36,164.86,78.54,165.46,78.44,165.83Z"/><path class="cls-16" d="M69.33,170.19s-.58,2.72.66,3.95a15.89,15.89,0,0,0,3.56,2.62,33.13,33.13,0,0,0,4.09,1.94c2.15.88,4.62,2.46,7,2.54.36,0,1.65.16,2.84.31l2.28.28a23.34,23.34,0,0,0-3.06-4.26,23.92,23.92,0,0,0-3.58-2.69c-2.72-1.93-5.41-4-8-6.07-.85-.67-1.51-1.14-2.67-.71A9.58,9.58,0,0,0,69.33,170.19Z"/><path class="cls-17" d="M61.11,175.24s-.7,2.87.68,4.31c2.58,2.68,6.15,4.26,9.05,5.67a45.75,45.75,0,0,0,6,2.35,10.81,10.81,0,0,0,5.22.33,15.15,15.15,0,0,0-.91-2.39,4.64,4.64,0,0,0-1.81-1.94c-2.09-1.48-3.77-2.65-5.38-3.9-2.83-2.19-5.33-4.51-7.36-6.31C65.81,172.68,63.74,172.9,61.11,175.24Z"/><path class="cls-18" d="M50.26,183c-.33.24.87,2.5,1,2.75a5.15,5.15,0,0,0,2.06,2c4.5,2.12,9.63,2.88,13.75,3.58a64.09,64.09,0,0,0,7.31.87,22.13,22.13,0,0,0,3.64,0c.92-.11,2.63-.29,3.23-1a8.89,8.89,0,0,0-5-4c-3.12-1-5.7-1.89-8.21-2.77-3.29-1.15-6.7-2.49-9.91-3.91a6.72,6.72,0,0,0-2.7-.71,5.25,5.25,0,0,0-3.66,1.92l-.43.43A9.83,9.83,0,0,1,50.26,183Z"/><path class="cls-19" d="M41,190.18a8.37,8.37,0,0,0,.59,2.06,6.53,6.53,0,0,0,2.73,3.22,46.41,46.41,0,0,0,8.19,3.39c2.77.9,5.42,1.55,7.9,2.3,4,1.18,7.2,1.72,9.5,2.23a15.63,15.63,0,0,0,3.79.4,12.65,12.65,0,0,0,1.75-.15,10.86,10.86,0,0,0,1.66-.38,24,24,0,0,0-2.38-3,9.39,9.39,0,0,0-3.45-2.32c-3.56-1.63-6.53-2.94-9.48-4.36-5.13-2.43-9.92-4.92-13.83-6.84C46.38,186,43.7,186.81,41,190.18Z"/><path class="cls-20" d="M31.74,198.3a6.16,6.16,0,0,0,0,.75,8.63,8.63,0,0,0,.35,1.86,7.36,7.36,0,0,0,3.4,4.29,37.34,37.34,0,0,0,10.76,3.71c3.47.68,6.83,1.24,9.93,1.7a65.14,65.14,0,0,0,6.77.62,45.71,45.71,0,0,0,5.05-.12A10.09,10.09,0,0,0,72.23,210a5.72,5.72,0,0,0,2.53-2.58c-1-.38-2.18-1.16-3.2-1.63a11.18,11.18,0,0,0-4-1.11,78.15,78.15,0,0,1-11.3-2.78c-3.19-1-6.34-2.16-9.14-3.25a52.08,52.08,0,0,1-7.2-3.31,4.05,4.05,0,0,0-3.21,0A15,15,0,0,0,31.74,198.3Z"/><path class="cls-21" d="M20.42,210.92a11.66,11.66,0,0,0,1.37,2.65,9.08,9.08,0,0,0,4.53,3.66,57,57,0,0,0,5.91,1.64c2,.47,4,.86,6,1.2,3.86.68,7.74,1.21,11.18,1.76,1.38.22,2.7.41,3.94.56l3.57.47c2.23.26,4.14.45,5.67.61a23,23,0,0,0,5.08.08,13.6,13.6,0,0,0,2.2-.43A11.84,11.84,0,0,0,71.37,222h0v0s-1-1.12-1.28-1.43a21.73,21.73,0,0,0-1.94-1.75,14,14,0,0,0-5-2.68l-13.58-4.56-10.81-3.7q-5.17-1.77-9.53-3.12a5.22,5.22,0,0,0-4.18.84A14.25,14.25,0,0,0,20.42,210.92Z"/><path class="cls-22" d="M7.76,227.3a3,3,0,0,1,1.12.33,2.51,2.51,0,0,0,.24.19l.15.09,0,.08.25.37.67.91c.27.33.57.68.91,1A10.36,10.36,0,0,0,17,233.56c9.27,1.3,18.66.31,26.35.33,3.11,0,5.9-.06,8.3-.15l6.14-.1a23,23,0,0,0,5.53-.73,31.82,31.82,0,0,0,4.18-2.13l-1.93-1.62a21.59,21.59,0,0,0-2.44-1.75,15,15,0,0,0-6-2.29c-2.94-.58-5.62-1-8.21-1.49l-7.5-1.31L35,221.19l-6.16-1c-4-.65-7.8-1.16-11.14-1.55a5.6,5.6,0,0,0-4.4,1.84c-.73.73-3.63,3.64-3.92,4.36l-.52,1.08A3.46,3.46,0,0,1,7.76,227.3Z"/><path class="cls-23" d="M-16.09,298.16a15.18,15.18,0,0,0,2.21,2.69A9.4,9.4,0,0,0-8,303.71c6.57.33,13.07-1,19.55-3.21,1.19-.42,2.42-.88,3.66-1.36L17,298.4l1.89-.92c.64-.32,1.27-.65,1.91-1,.31-.16.64-.37.95-.5l.91-.24c1.21-.33,2.41-.66,3.59-1,2.36-.7,4.59-1.45,6.77-2.33A35.81,35.81,0,0,0,39,289.36l2.17-1.47a57,57,0,0,0-5.7-1.92c-6.48-1.36-12.89-.35-19.37.21-6.81.58-13.82.82-20.73,1.26-2.54.17-6.09-.49-7.95,1.84a14.41,14.41,0,0,0-2.25,4.19A27.67,27.67,0,0,0-16.09,298.16Z"/><path class="cls-24" d="M-19,316.9c-.26,1.71,3.45,3.83,4.52,4.24,3.3,1.39,7.08,1.2,10.8.69,1.85-.25,3.72-.64,5.51-1s3.48-.8,5.08-1.24a54.78,54.78,0,0,0,16.51-6.85c2.48-1.6,5.47-3.8,6.71-7.58l.12-.41c-.2.71-6-.08-6.73-.14a25.1,25.1,0,0,0-5.09.27c-1.71.21-3.43.51-5.09.74-7,1-14.06,1.3-21.09,1.72-2.67.17-6.47-.55-8.55,1.71C-18.17,311.07-18.59,314.21-19,316.9Z"/><path class="cls-25" d="M101.48,154.54s.53-.2,1.1-.48a3.28,3.28,0,0,0,1.36-1,6.94,6.94,0,0,0,.44-3.15c0-1.31,0-2.62-.07-3.92a3.67,3.67,0,0,0-1.39-2.73c-.31-.26-1.75.56-2,.82a9.16,9.16,0,0,0-1.08,2.17,27.49,27.49,0,0,0-2.15,7.15C97.62,154.05,98.85,154.68,101.48,154.54Z"/><path class="cls-26" d="M108.78,152a3.25,3.25,0,0,0,2-1.55,3.89,3.89,0,0,0-.12-2.11,5.86,5.86,0,0,1,.13-2.24,10.19,10.19,0,0,0,.11-2.64,2.39,2.39,0,0,0-2.6.67,10.88,10.88,0,0,0-1.7,2.29,8.57,8.57,0,0,0-1.11,5C105.65,152.63,107.8,152.12,108.78,152Z"/><path class="cls-27" d="M94.79,157.19s2.24-1,2.56-2.1c.52-1.77.24-3.54.22-5.31,0-1.41-.09-2.82-.24-4.22,0-.25-.62-3.73-1.06-3.54a9.75,9.75,0,0,0-1.91,1c-1.12.84-1.44,2.2-1.84,3.35a34.62,34.62,0,0,0-1.83,9.56C90.66,156.61,92,157.3,94.79,157.19Z"/><path class="cls-28" d="M88,159.93a5.24,5.24,0,0,0,2.33-4.71,35.27,35.27,0,0,0,.06-8.83,14.14,14.14,0,0,0-1.6-4.85,5.3,5.3,0,0,0-2,1.69,31.42,31.42,0,0,0-2.57,8.28c-.45,2.52-1.39,5.47-.6,7.83C84.17,161,86.64,160.84,88,159.93Z"/><path class="cls-29" d="M79.46,164.11A15.59,15.59,0,0,0,80.52,163a5.12,5.12,0,0,0,1.25-2.16,41.43,41.43,0,0,0,.14-7.55c-.13-3.09-.12-6.61-1.31-9.42-.3-.76-.76-1.43-1.08-2.41a15.89,15.89,0,0,0-2.22,2.11A8.58,8.58,0,0,0,76.23,146a24.31,24.31,0,0,0-.93,4c-.17,1.36-.35,2.73-.52,4.08a37.87,37.87,0,0,0-.43,8.6c.09,1,1.18,1.49,2.1,1.64C77,164.41,79,164.56,79.46,164.11Z"/><path class="cls-30" d="M70.18,168.86a5.45,5.45,0,0,0,2.6-3.26,39.81,39.81,0,0,0,.62-7.81,37,37,0,0,0-.71-8.55c-.38-1.74-1.22-3-1.81-5,.07.28-1.65,1.75-1.89,2.05a9.84,9.84,0,0,0-1.59,4.32c-.63,2.89-.8,5.8-1.22,8.66-.27,1.82-.53,3.59-.73,5.43-.19,1.68-.58,3.17,1,4.13a3.92,3.92,0,0,0,1.61.54A3.8,3.8,0,0,0,70.18,168.86Z"/><path class="cls-31" d="M62,173.85a14.06,14.06,0,0,0,1.12-1.41,5.29,5.29,0,0,0,1.11-3c-.11-3.56-1.16-7-1.77-10.45a93.3,93.3,0,0,1-1.76-12,4.37,4.37,0,0,1,.37-2,11.68,11.68,0,0,0-4.2,4c-1.67,3-1.58,6.32-1.66,9.23a60.15,60.15,0,0,0,1.11,12.93,3,3,0,0,0,1.92,2.58A8.8,8.8,0,0,0,62,173.85Z"/><path class="cls-32" d="M53,179.81l.19-.52c.12-.33.28-.77.42-1.28a6.62,6.62,0,0,0,.26-3.46c-.27-1-.6-2.18-.68-2.78-.19-1.21-.41-2.39-.65-3.55-.46-2.31-.93-4.54-1.15-6.66-.36-3.36-.54-6.5-.63-8.65a11.64,11.64,0,0,0-.65-3.5c-.82-1.58-2.08-2.29-2.19-2.17s-.47.48-.71.76a7.92,7.92,0,0,0-.71.89,5.29,5.29,0,0,0-.34.55c-.11.23-.18.3-.26.45a9.5,9.5,0,0,0-1.42,4c-.33,1.95-.63,3.75-.79,5.54s-.19,3.43-.18,5.06a65.78,65.78,0,0,0,.55,7.91c.08.6.17,1.2.26,1.79l.07.44.12.6c.1.36.19.71.29,1a24.38,24.38,0,0,0,1.34,3.26A3,3,0,0,0,48.57,181,7,7,0,0,0,53,179.81Z"/><path class="cls-33" d="M43.89,186.57a13,13,0,0,0,.86-2.17A7.84,7.84,0,0,0,45,180c-1.62-5.71-4.57-10.86-6.53-15.56-1.57-3.74-3-6.86-3.9-9.13-.26-.68-.57-1.28-.83-1.88s-.55-1.21-.87-1.78a5.56,5.56,0,0,0-2.59-2.57,27.08,27.08,0,0,0-2.13,4.05,13.15,13.15,0,0,0-.47,1.81,9.85,9.85,0,0,0-.13,1.44,13.66,13.66,0,0,0,.22,2.21,80.61,80.61,0,0,0,2.8,11.4,128.8,128.8,0,0,0,5.86,15.46C37.19,187.05,39.85,187.94,43.89,186.57Z"/><path class="cls-34" d="M31.23,198.46s.78-1,1.6-2.2c.41-.6.83-1.25,1.16-1.83a5,5,0,0,0,.69-1.47,10.23,10.23,0,0,0-.13-5.11c-1.64-4.78-3.17-9.49-4.53-14.37-.68-2.43-1.3-4.9-1.84-7.43s-.95-5-1.26-7.64a54,54,0,0,0-2.05-11.48c-.58,1-1.64,2.68-3.11,4.88a24.71,24.71,0,0,0-1.91,3.38,18.62,18.62,0,0,0-1.09,3.23,25.73,25.73,0,0,0-.58,6.49,113.85,113.85,0,0,0,1.69,13.89c.28,1.86.65,3.75,1.07,5.59a51.82,51.82,0,0,0,2.56,8.66C25.5,197.64,31.25,198.26,31.23,198.46Z"/><path class="cls-35" d="M20.28,209.82a17.79,17.79,0,0,0,2.44-9.29c-.2-2.22-.5-4.42-.88-6.59s-.73-4.28-1.16-6.43-.87-4.3-1.31-6.46-.79-4.32-1.1-6.54c-.5-3.68-1-7.48-1.38-11.2a73.35,73.35,0,0,0-1.17-8.63,25,25,0,0,0-1.24-4.1,9.55,9.55,0,0,1-1.16-4c0,.72-1,1.75-1.43,2.43a31.18,31.18,0,0,0-2.06,3.22A24.72,24.72,0,0,0,8,156.48a31.44,31.44,0,0,0-1.06,4.28A45.17,45.17,0,0,0,6.24,169c0,3.11.09,6.2.22,9.25s.42,6.15.68,9.14c.13,1.39.25,2.78.38,4.18s.29,2.84.46,4.24A56.67,56.67,0,0,0,9.49,204c.95,3.56,3,6.21,6.81,6.41C17,210.39,19.88,210.62,20.28,209.82Z"/><path class="cls-36" d="M9.9,223.85a9,9,0,0,0,1.56-5.1,13,13,0,0,0-.69-5.05,59.28,59.28,0,0,0-3-6.6L-.37,192.29c-2.67-4.93-5.32-10-7.75-15.14a31.38,31.38,0,0,0-8.2-10c-.1-.13-.22-.14-.31-.37s-.18-.42-.26-.65c-.09.32-.18.64-.26,1s-.14.4-.2.6c-.16.43-.27.75-.41,1.14-.25.71-.51,1.44-.77,2.23a32.76,32.76,0,0,0-1.12,4.23,15.77,15.77,0,0,0,.28,8.27A133.82,133.82,0,0,0-6.65,215.69c1.83,3.37,3.54,6.85,6.07,9.55a4.29,4.29,0,0,0,3.23,1.26c2.12.1,4.32-.77,5.2,1.1C8,227.92,9.67,224.16,9.9,223.85Z"/><path class="cls-37" d="M-.77,244.23c-.23-1-2.38-.92-3.09-.95-3.36-.18-6.63-.69-9.18-3.05a52.85,52.85,0,0,1-9.74-12.71,99.07,99.07,0,0,1-6.34-14.2,95,95,0,0,1-4-15.34,35.88,35.88,0,0,1-.49-8.64A25.12,25.12,0,0,1-31,179.92c.26-.48,1.14-1.86.9-2.28A20.2,20.2,0,0,1-21.94,189c1.14,3.7,2.24,6.94,3.44,10s2.44,5.8,3.78,8.48a120.05,120.05,0,0,0,8.29,13.8c1.53,2.21,3.12,4.38,4.73,6.49,1.24,1.64,2.66,3.38,3.11,5.53a13.49,13.49,0,0,1-1.22,8.18l-.58,1.06A3,3,0,0,0-.77,244.23Z"/><path class="cls-38" d="M-20.06,331.7a35.55,35.55,0,0,1-.41-3.83c0-1.27-.08-2.53,0-3.82a74.85,74.85,0,0,1,.63-7.71c.63-5.16,1.6-10.33,2.56-15.55.48-2.62.95-5.24,1.38-7.9l1.18-7.86c.93-5.16,2-10.33,3.36-15.4a159.48,159.48,0,0,1,27.54-55.7,179.08,179.08,0,0,1,46.25-40.82c17.45-10.87,36.35-19,56-25.59,1.26-.43,1.61.93.37,1.35-19.14,6.41-37.55,14.36-54.62,24.84a188.52,188.52,0,0,0-24.32,17.65A165.92,165.92,0,0,0,18.72,213,157.33,157.33,0,0,0-9.43,267.77c-1.42,5.23-2.72,10.49-3.63,15.81-.28,1.32-.45,2.66-.66,4l-.61,4.05c-.41,2.81-.9,5.55-1.4,8.27-1,5.42-2,10.76-2.67,16-.36,2.65-.58,5.27-.68,7.85,0,.64-.05,1.3,0,1.93l0,1.91a33.84,33.84,0,0,0,.4,3.87C-18.48,332.75-19.85,333-20.06,331.7Z"/><path class="cls-39" d="M110.12,151.22s.39-2.23,1.4-2.88a8.55,8.55,0,0,1,3.3-1.12c1.2-.17,2.4-.21,3.42-.31,1.18-.12,2.93-.09,3.93.75a9.62,9.62,0,0,1-1,1.29,7.34,7.34,0,0,1-2.47,1.12,14.51,14.51,0,0,0-2.91,1.11c-.72.38-1.28.77-2,1.09A2.63,2.63,0,0,1,110.12,151.22Z"/><path class="cls-40" d="M197.67,548.64c0-.21,1.85-21.1,2.2-29.14.88-20.32-5.15-38.34-7.72-46l-.51-1.54c-6.17-18.83-13.41-29.39-19.68-37.22l-1.32,1.05c6.17,7.72,13.31,18.12,19.39,36.7l.51,1.55c2.55,7.6,8.5,25.41,7.64,45.42-.35,8-2.18,28.85-2.2,29.06Z"/><path class="cls-41" d="M173,430.73a23.9,23.9,0,0,1,1,6,19.81,19.81,0,0,1-.09,2.3s-.78-.37-2-1-3-1.5-5-2.47a23,23,0,0,1-6.88-6.25c-2.37-3-4.72-6.94-5.35-11.13a23.91,23.91,0,0,1,12.2,4.5A16.76,16.76,0,0,1,173,430.73Z"/><path class="cls-42" d="M175.67,444.35a37.2,37.2,0,0,1,4.39,3.8c1,1,1.52,1.65,1.52,1.65s-.78.29-2.13.67-3.27.88-5.53,1.31-5.7,0-9.23-1a41.09,41.09,0,0,1-10.62-4.88,17.39,17.39,0,0,1,12.31-4.3A17,17,0,0,1,175.67,444.35Z"/><path class="cls-43" d="M184.9,444.37c-1.13,1.9-2.14,3.52-2.88,4.67s-1.21,1.82-1.21,1.82a20.25,20.25,0,0,1-1.15-1.88,28.15,28.15,0,0,1-2.22-5.37c-.7-2.3-.5-6.16.92-10A19.21,19.21,0,0,1,185.8,424a30.81,30.81,0,0,1,1.42,12A20.62,20.62,0,0,1,184.9,444.37Z"/><path class="cls-44" d="M184.91,463.15a18.16,18.16,0,0,1,4.59,5,10.69,10.69,0,0,1,.84,1.66c.15.39.24.6.24.6h-.65c-.42,0-1,0-1.74,0a43.06,43.06,0,0,0-5.7.69c-2.25.39-5.59.07-9.46-.69a40,40,0,0,1-12.12-4.36A20,20,0,0,1,174,460.27C178.53,460,182.67,461.35,184.91,463.15Z"/><path class="cls-45" d="M196,462.51c-1.55,1.84-2.87,3.46-3.79,4.68l-1.44,2a15.22,15.22,0,0,1-1.22-2.22,23.35,23.35,0,0,1-1.79-6.56c-.38-2.82.73-7.25,3.22-11.16a22.16,22.16,0,0,1,10.48-9,33.69,33.69,0,0,1-1.2,13.71A24.8,24.8,0,0,1,196,462.51Z"/><path class="cls-46" d="M191.92,484.63a29.68,29.68,0,0,1,3.6,4.26,18,18,0,0,1,1.13,1.81s-.78.12-2.09.26-3.18.31-5.32.41-5.26-.74-8.41-2c-1.57-.67-3.17-1.46-4.73-2.31s-3.12-1.8-4.82-2.78a11.8,11.8,0,0,1,5.86-3.16,17.13,17.13,0,0,1,6.22-.26A15.6,15.6,0,0,1,191.92,484.63Z"/><path class="cls-47" d="M201.53,485.83c-1.43,1.36-2.7,2.5-3.55,3.36-.45.43-.75.79-1,1s-.37.38-.37.38l-.21-.48a9.48,9.48,0,0,1-.51-1.43,20.26,20.26,0,0,1-.72-5.37c0-2.24,1.15-5.54,3.23-8.47a21.59,21.59,0,0,1,8.29-7.1,21.39,21.39,0,0,1-1,11.24A18.21,18.21,0,0,1,201.53,485.83Z"/><path class="cls-48" d="M202.64,504.36a25.66,25.66,0,0,1-3.68,2.76,22.52,22.52,0,0,1-.33-4.6,11.42,11.42,0,0,1,1.93-5.22,15.43,15.43,0,0,1,4.86-5,12.5,12.5,0,0,1,0,7.36A10.52,10.52,0,0,1,202.64,504.36Z"/><path class="cls-49" d="M301.35,486.62c-3.83-3.71-7.05-7.34-13.07-8.74-2.67-.62-7.86-2.53-7.71-5.22.26-4.69,16.06,3.47,17.83,4.39a35.39,35.39,0,0,1,14.08,13.77,38.7,38.7,0,0,1,3.81,9.05c.77-.91,1.52-1.85,2.23-2.8,1.64-8.25-.3-17.58-4.06-22.18-4.24-5.17-9.8-8-16.35-9.34-2.89-.59-6.85-1.49-8.66-4-1.64-2.28,2.57-3.85,10-2.16,7,1.59,13.81,4.68,17.78,10.11,4.4,6,5.8,12.48,7,16.81l.14.43a33.17,33.17,0,0,0,2-7c.19-1.21.35-2.36.49-3.48-1.58-5.75-.16-11.69-5.23-21.27-2.65-5-6.73-6.35-11.36-7.17-3.42-.61-6.86-.08-10.26.21-1.76.15-4,0-4.74-1.5a2.65,2.65,0,0,1,.76-2.88c4.31-4.64,19.56-3.29,25.9,2.3,3.86,3.39,5.67,7.73,6.84,12.18,0-.15,0-.29.07-.45,1.62-9.32,3.32-15.45-1.63-22.1-7-9.33-18.15-10.07-24.54-8.37-8.44,2.23-11,3.42-11,3.42-.08-1.36-.43-3.07.81-12,1.11-8-.15-17.45-11.62-19.2-10.24-1.56-17.9,3.17-25.61,8.65-2.82,2-5.59,4.09-8.26,6.3,5.36-2.72,16.55-5.48,22.65-3.93,11,2.81,10.49,13,9.54,22.19-.49,4.65-3.09,5.36-4.1,3.42-2.19-4.22-.93-8.11-3-14.85-2.44-8.05-12.31-7.76-29.12-2.65l-1.11.33a79.22,79.22,0,0,0-6.18,6.51c-.81,1-1.55,1.92-2.27,2.89,7.82-2.7,20.79-4.62,26.82-.08,4.48,3.37,6,9.43,6.84,14.78.53,3.21-.4,8.53-3.58,6.13a10,10,0,0,1-3.78-6.67c-2.06-11.57-8.21-15.61-25.08-9.58a37.59,37.59,0,0,0-5.62,2.35,50.52,50.52,0,0,0-5.16,15,54.73,54.73,0,0,1,5.39-2.88c7.39-3.2,16.52-3.65,21.65,3.22,6,8,6.7,10.49,5.29,12.71-.79,1.23-4,.18-5.66-1.86-3.16-3.81-5.32-9.63-11.65-11.14s-11,3.12-15.68,7.62l-.2.21a94.07,94.07,0,0,0,1.27,18.41c2.63-1.23,4.6-3.67,7-5.52,4.35-3.42,10.15-4.5,15-.51,1.29,1.06,2.89,3.27,2.48,5.15-.45,2.07-3,.91-4.56.18-2.31-1.12-7.92-1.24-12.93,2.49-2.73,2-4.57,3.36-5.89,4.25.7,3.74,1.49,7.5,2.27,11.27a24.93,24.93,0,0,1,6.77-4.06c1.77-.63,6.91-2.1,7.48.85.64,3.33-6.27,5.91-8.07,7.07a42,42,0,0,0-4.78,3.13c2.51,13.38.91,18.23.91,18.23a110.16,110.16,0,0,0,16.29,2.88c1.23.09,2.46.18,3.7.25a32.89,32.89,0,0,0,1.72-5.25c.66-2.78.41-5.52.92-8.3s3.51-5.63,5.54-2.21c1.26,2.12,1.47,5.06,1.52,7.45a42.53,42.53,0,0,1-.65,8.37c0,.11,0,.22-.08.34,2.88.06,5.76,0,8.62-.07a49.87,49.87,0,0,1,2.55-6.67c1.84-4.24,1.29-6.52-1.16-13.9-.82-2.46-6.13-10.58-2.09-11.62,5.36-1.36,7.4,9.94,8.1,13.2,1.28,5.88,2.37,12.19,1.84,18.18a71.32,71.32,0,0,0,8.59-1.71,36.82,36.82,0,0,0,2.28-8.47c.67-4.92.65-10.12-1.38-14.8A35.14,35.14,0,0,0,278.68,486c-1.18-1.18-2.88-2.51-1.87-4.38,2.83-5.19,8.95,4.91,10.25,7,5.27,8.46,8.15,18.58,6.46,28.37a.29.29,0,0,0,0,.09,52.6,52.6,0,0,0,8.46-4.56c1.82-1.21,3.65-2.57,5.46-4C308.8,500.6,307.46,492.55,301.35,486.62Z"/><path class="cls-50" d="M326.85,476.26c-1.58-5.75-.16-11.69-5.23-21.27-2.65-5-6.73-6.35-11.36-7.17-3.42-.61-6.86-.08-10.26.21-1.76.15-4,0-4.74-1.5a2.65,2.65,0,0,1,.76-2.88c4.31-4.64,19.56-3.29,25.9,2.3,3.86,3.39,5.67,7.73,6.84,12.18,0-.15,0-.29.07-.45,1.62-9.32,3.32-15.45-1.63-22.1-7-9.33-18.15-10.07-24.54-8.37-5.32,1.41-8.31,2.39-9.8,2.93l-1.24.49s-13.07,5.52-27.37,34.34c-10.81,21.78-17.19,42.06-34.39,54a110.16,110.16,0,0,0,16.29,2.88c1.23.09,2.46.18,3.7.25a32.89,32.89,0,0,0,1.72-5.25c.66-2.78.41-5.52.92-8.3s3.51-5.63,5.54-2.21c1.26,2.12,1.47,5.06,1.52,7.45a42.53,42.53,0,0,1-.65,8.37c0,.11,0,.22-.08.34,2.88.06,5.76,0,8.62-.07a49.87,49.87,0,0,1,2.55-6.67c1.84-4.24,1.29-6.52-1.16-13.9-.82-2.46-6.13-10.58-2.09-11.62,5.36-1.36,7.4,9.94,8.1,13.2,1.28,5.88,2.37,12.19,1.84,18.18a71.32,71.32,0,0,0,8.59-1.71,36.82,36.82,0,0,0,2.28-8.47c.67-4.92.65-10.12-1.38-14.8A35.14,35.14,0,0,0,278.68,486c-1.18-1.18-2.88-2.51-1.87-4.38,2.83-5.19,8.95,4.91,10.25,7,5.27,8.46,8.15,18.58,6.46,28.37a.29.29,0,0,0,0,.09,52.6,52.6,0,0,0,8.46-4.56c1.82-1.21,3.65-2.57,5.46-4,1.38-7.89,0-15.94-6.07-21.87-3.83-3.71-7.05-7.34-13.07-8.74-2.67-.62-7.86-2.53-7.71-5.22.26-4.69,16.06,3.47,17.83,4.39a35.39,35.39,0,0,1,14.08,13.77,38.7,38.7,0,0,1,3.81,9.05c.77-.91,1.52-1.85,2.23-2.8,1.64-8.25-.3-17.58-4.06-22.18-4.24-5.17-9.8-8-16.35-9.34-2.89-.59-6.85-1.49-8.66-4-1.64-2.28,2.57-3.85,10-2.16,7,1.59,13.81,4.68,17.78,10.11,4.4,6,5.8,12.48,7,16.81l.14.43a33.17,33.17,0,0,0,2-7C326.55,478.53,326.71,477.38,326.85,476.26Z"/><path class="cls-51" d="M228.86,275.43a4,4,0,1,0,4-4A4,4,0,0,0,228.86,275.43Z"/><path class="cls-52" d="M71.39,420.91a4,4,0,1,0,4-4A4,4,0,0,0,71.39,420.91Z"/><circle class="cls-52" cx="361.72" cy="410.51" r="3.13"/><circle class="cls-53" cx="134.73" cy="236.7" r="21.9"/><path class="cls-51" d="M188.81,399.85a2.55,2.55,0,1,0,2.54-2.54A2.54,2.54,0,0,0,188.81,399.85Z"/><path class="cls-52" d="M345.75,329.46a2.55,2.55,0,1,0,2.54-2.54A2.54,2.54,0,0,0,345.75,329.46Z"/><path class="cls-52" d="M142.17,157.63a2.55,2.55,0,1,0,2.54-2.54A2.55,2.55,0,0,0,142.17,157.63Z"/><path class="cls-51" d="M21.25,126.52a3.5,3.5,0,1,0,3.5-3.5A3.49,3.49,0,0,0,21.25,126.52Z"/><circle class="cls-51" cx="447.37" cy="482.33" r="4.81"/><path class="cls-54" d="M-47.83,475.87-49,474.54c.49-.43,48.83-43.51,69.54-95l1.64.66C1.31,432.09-47.34,475.44-47.83,475.87Z"/><path class="cls-55" d="M18.89,376.22c.2,2.35.32,4.35.43,5.84s.13,2.36.13,2.36a18.56,18.56,0,0,0,2.13-1.15,24.89,24.89,0,0,0,4.93-4.14c1.86-2,3.45-6,3.82-10.31a24.92,24.92,0,0,0-2.26-12.89A26.33,26.33,0,0,0,20.51,367,23,23,0,0,0,18.89,376.22Z"/><path class="cls-56" d="M7.79,391.48A57.48,57.48,0,0,0,12,395.77c1.07,1,1.75,1.55,1.75,1.55s.3-.81.67-2.25a42.39,42.39,0,0,0,1.05-6c.27-2.46-.57-6.16-2.22-9.8A32.7,32.7,0,0,0,6,369.11a20.6,20.6,0,0,0-2.08,13.31A18.84,18.84,0,0,0,7.79,391.48Z"/><path class="cls-57" d="M17.72,389.79a30,30,0,0,0-3.65,4.85,23,23,0,0,0-1.08,2s.86.07,2.28.12,3.42.12,5.73.12,5.62-1,9.05-2.72a32.2,32.2,0,0,0,9.8-7.3,20.17,20.17,0,0,0-13.16-1.69A17.1,17.1,0,0,0,17.72,389.79Z"/><path class="cls-58" d="M-3,408.87a42.74,42.74,0,0,1,3.66,4.81c.45.65.73,1.19,1,1.57l.35.59.41-.53a11.43,11.43,0,0,0,1.06-1.65,19.6,19.6,0,0,0,2.1-6.87c.42-3-.85-7.74-3.73-11.74a20.93,20.93,0,0,0-11.74-8.41,42.25,42.25,0,0,0,2.45,13.79A28.65,28.65,0,0,0-3,408.87Z"/><path class="cls-59" d="M8.45,408.64a24.35,24.35,0,0,0-4.93,5.08A16.12,16.12,0,0,0,2.17,416l2.55.26c1.58.18,3.73.51,6.2.93s6.2,0,10.38-1.07a34.87,34.87,0,0,0,12.58-5.84,23.38,23.38,0,0,0-14.22-4.92C15,405.33,10.78,406.8,8.45,408.64Z"/><path class="cls-60" d="M-4.48,428.53A21.2,21.2,0,0,0-8.93,432a11.56,11.56,0,0,0-1,1.21l-.31.45.54.13c.35.09.83.17,1.45.36,1.23.31,2.92.85,4.9,1.42a20.23,20.23,0,0,0,8.7-.17,22.18,22.18,0,0,0,10.33-4.78,22.57,22.57,0,0,0-11.22-3.93A16,16,0,0,0-4.48,428.53Z"/><path class="cls-61" d="M378.83,497.83c4.47-6.73,7.12-7.59,12.4-7.65,4.55,0,12.89.17,17.42,0,2.24-.07,4.6-.3,6.9-.39a20.8,20.8,0,0,1,6.56.54c1.19.33,4.05,1.46,4.23,1.43-.19.17-1.94,2.07-2.65,2.72a21.58,21.58,0,0,1-10.07,5.5c-2.92.73-5.83,1.36-8.71,1.89s-5.74,1-8.6,1.25-5.66.65-8.42.78c-2.52.14-6.05.67-7.44-1.63-.68-1.11-1.28-3.55-2.26-3.61C377.6,498.63,378.48,498.37,378.83,497.83Z"/><path class="cls-62" d="M400.4,381.94c1.26.53,2.14.2,2.61-1.27s1.27-2.64.78-4.51c-.23-.25-.47-.12-1-.52s-1.34.19-1.76.52a9.42,9.42,0,0,0-1.77,2.24C399.1,378.67,399.39,380.11,400.4,381.94Z"/><path class="cls-63" d="M398.36,375.91a3.28,3.28,0,0,0,1.09.25c.73-.1.94-.41,1.12-1.12a8.59,8.59,0,0,0,.24-1.81,5.18,5.18,0,0,0-.67-2.26c-.17.27-.66.12-.82.06s-.95.41-1.28.76a11.69,11.69,0,0,0-1,1C396.92,373,397.09,374.47,398.36,375.91Z"/><path class="cls-64" d="M402.28,388.15s.39.22.83.41c1.18.51,1.51-.07,2.21-1.1a28,28,0,0,0,2-3.46,4.07,4.07,0,0,0,0-3.15,1.93,1.93,0,0,1-1.1-.13,1.51,1.51,0,0,0-1.33.06,21,21,0,0,0-3.05,3.36C401.58,384.55,401.48,385.4,402.28,388.15Z"/><path class="cls-65" d="M403.79,394.8a5.65,5.65,0,0,0,.68.88c1.41,1.48,2.66.62,3.63-1a22.65,22.65,0,0,0,2-5.19,10.69,10.69,0,0,0,.23-3.56,2.85,2.85,0,0,0-1.43-.35,2.4,2.4,0,0,0-1.27,1.06c-1.22,1.66-2.53,3.55-4.25,4.25C403.15,391,403.3,392.2,403.79,394.8Z"/><path class="cls-66" d="M405.88,403.63a4.85,4.85,0,0,0,1.46,1.07,2.08,2.08,0,0,0,1.48-.23,8.88,8.88,0,0,0,3.19-3.2,24,24,0,0,0,2.74-5.32c.13-.27,1.1-3.41.89-3.5a4.36,4.36,0,0,0-3.52.76c-.94.83-1.8,1.78-2.76,2.55a28.38,28.38,0,0,1-3.13,2.41,2.27,2.27,0,0,0-1.33,2.31,7.37,7.37,0,0,0,.41,1.68A5,5,0,0,0,405.88,403.63Z"/><path class="cls-67" d="M406.29,412.87s1.46,1.7,2.65,1.28a12.17,12.17,0,0,0,5.26-4.53c1.13-1.57,2.93-3.23,3.45-5.57.08-.36.44-1.6.77-2.78.16-.59.32-1.15.44-1.57s.16-.7.16-.7a11.93,11.93,0,0,0-3.48,1.4,19.86,19.86,0,0,0-2.55,2.42,43.63,43.63,0,0,1-5.93,4.77,2.13,2.13,0,0,0-1.21,1.94A13.85,13.85,0,0,0,406.29,412.87Z"/><path class="cls-68" d="M406.26,421.69a9.19,9.19,0,0,0,.84,1,2.29,2.29,0,0,0,1.86.85c2.64-.42,5-2.41,7-4.2a22.24,22.24,0,0,0,3.6-4.2,12.19,12.19,0,0,0,1.88-5.09,6.77,6.77,0,0,0-1.82-.37,2.4,2.4,0,0,0-1.76.77,35.43,35.43,0,0,1-4.15,3,43.33,43.33,0,0,1-6.41,3C406.61,416.82,406,418.51,406.26,421.69Z"/><path class="cls-69" d="M405.18,433.78c-.08.36,1.61,1,1.81,1.1a2.72,2.72,0,0,0,2-.05,16.84,16.84,0,0,0,4.77-3.57c.74-.73,1.44-1.51,2.11-2.3s1.26-1.61,1.84-2.39a34.52,34.52,0,0,0,3.66-6.17,22,22,0,0,0,1.4-3.64,10.57,10.57,0,0,0,.45-4c-1.55,0-3,1.07-4.15,2.65a52.4,52.4,0,0,1-4.76,5.86,38.3,38.3,0,0,1-6.51,5.52,5.09,5.09,0,0,0-2.49,5.15,5.22,5.22,0,0,1,0,.56A9.5,9.5,0,0,1,405.18,433.78Z"/><path class="cls-70" d="M402.93,444.15a6.38,6.38,0,0,0,1.16,1.15,3.53,3.53,0,0,0,2.85.83,21.33,21.33,0,0,0,6.26-2.56c1-.59,2-1.24,3-1.91s1.82-1.39,2.68-2.08a39.92,39.92,0,0,0,3.7-3.38c1.06-1.11,1.91-2.18,2.63-3.06a18.08,18.08,0,0,0,2.18-3.38,18.33,18.33,0,0,0,.78-1.92,15.12,15.12,0,0,0,.57-2.07,9.48,9.48,0,0,0-2.69.13,5.91,5.91,0,0,0-2.84,1.63,54.52,54.52,0,0,1-6.94,5.11,60.75,60.75,0,0,1-10.65,5.06,3.44,3.44,0,0,0-1.63,2A12.82,12.82,0,0,0,402.93,444.15Z"/><path class="cls-71" d="M399.69,454.63a5.64,5.64,0,0,0,.22.57,6.72,6.72,0,0,0,.74,1.29,4.25,4.25,0,0,0,3.41,1.9,18.5,18.5,0,0,0,8.35-2.46,48.22,48.22,0,0,0,7.24-5,30.28,30.28,0,0,0,4.65-4.7,30.68,30.68,0,0,0,3.17-4.56,20.08,20.08,0,0,0,2.07-5,12.89,12.89,0,0,0,.17-4.91c-.69.66-1.71,1.22-2.47,1.83a13.31,13.31,0,0,0-2.7,2.85,33,33,0,0,1-7.84,6.95,46.41,46.41,0,0,1-6.84,3.55,24.09,24.09,0,0,1-5.74,1.56,3.37,3.37,0,0,0-2.05,1.61A25.76,25.76,0,0,0,399.69,454.63Z"/><path class="cls-72" d="M394.46,468.73a8.47,8.47,0,0,0,1.32,1.78,5,5,0,0,0,3.72,1.73,30.53,30.53,0,0,0,9.18-2,66.2,66.2,0,0,0,8.66-4,41.71,41.71,0,0,0,5.82-3.74c1.71-1.28,3.18-2.52,4.39-3.56a24.11,24.11,0,0,0,3.68-4.24,24.43,24.43,0,0,0,1.51-2.48,26.49,26.49,0,0,0,.72-2.7h0s-1-.26-1.32-.3a8.33,8.33,0,0,0-6.07,1.68,76.86,76.86,0,0,1-10.68,5.45,86.65,86.65,0,0,1-15.81,4.39C397.8,461.08,395.79,463.69,394.46,468.73Z"/><path class="cls-73" d="M386.09,484.78a1.72,1.72,0,0,1,.82.15l.17.12.11.06,0,.06.17.28.49.69c.18.25.4.51.63.77a5.62,5.62,0,0,0,4.25,2c6.91-.19,14.4-3.51,20.6-6.85a49.69,49.69,0,0,0,6.76-4.27c2-1.46,3.76-2.81,5.11-4a30.92,30.92,0,0,0,4.39-4.75,28.07,28.07,0,0,0,1.8-3.3l.88-1.85a5.62,5.62,0,0,0,.34-.8c-.07,0-1.41-.23-1.77-.27a9.38,9.38,0,0,0-2.18,0,10,10,0,0,0-4.92,1.93c-2.3,1.43-4.5,2.54-6.51,3.57s-3.91,1.9-5.87,2.65a92,92,0,0,1-9.71,3.1c-3.06.77-5.94,1.31-8.42,1.76a5.39,5.39,0,0,0-3.11,2.49,45.18,45.18,0,0,0-2.83,4.23l-.39,1A3.56,3.56,0,0,1,386.09,484.78Z"/><path class="cls-74" d="M400,381.06s-.17-.48-.39-1a3.29,3.29,0,0,0-.76-1.26,4.54,4.54,0,0,0-2.3-.56c-.95-.09-1.89-.11-2.82-.11a2.32,2.32,0,0,0-1.9,1.05c-.17.24.47,1.43.67,1.62a8.37,8.37,0,0,0,1.58,1,27.62,27.62,0,0,0,5.15,2.42C399.65,384.36,400.11,383.39,400,381.06Z"/><path class="cls-75" d="M397.68,374.51a3.4,3.4,0,0,0-1.31-1.71,2.32,2.32,0,0,0-1.52.08,3.7,3.7,0,0,1-1.61-.11,5.78,5.78,0,0,0-1.91-.07,2.34,2.34,0,0,0,.71,2.14,9.52,9.52,0,0,0,1.8,1.42,6.19,6.19,0,0,0,3.68,1.14C398.37,377.29,397.91,375.37,397.68,374.51Z"/><path class="cls-76" d="M401.87,387.25s-.72-2.1-1.49-2.52a9.72,9.72,0,0,0-3.81-.77,20.45,20.45,0,0,0-3-.16c-.18,0-2.66.24-2.53.6a8.77,8.77,0,0,0,.65,1.57,5.24,5.24,0,0,0,2.32,1.75,39.56,39.56,0,0,0,6.7,2.86C401.19,390.74,401.8,389.77,401.87,387.25Z"/><path class="cls-77" d="M403.34,393.71a4.48,4.48,0,0,0-.29-.68,4.94,4.94,0,0,0-2.87-2.26,17.83,17.83,0,0,0-6.23-1.36,8.87,8.87,0,0,0-3.54.69,4.78,4.78,0,0,0,1,1.7,34,34,0,0,0,5.55,3.28c1.68.83,3.62,2.27,5.38,2.23C403.61,397.28,403.81,395.11,403.34,393.71Z"/><path class="cls-78" d="M404.94,402.19a10.78,10.78,0,0,0-.58-1.26,4.28,4.28,0,0,0-1.27-1.68,19.76,19.76,0,0,0-5.21-2c-2.17-.58-4.6-1.21-6.7-.79-.57.09-1.1.31-1.82.39a11.67,11.67,0,0,0,1.1,1.92A7.49,7.49,0,0,0,392,400a59.59,59.59,0,0,0,5.23,3,39.43,39.43,0,0,0,5.65,2.94c.67.26,1.27-.43,1.58-1.14A5.85,5.85,0,0,0,404.94,402.19Z"/><path class="cls-79" d="M405.72,411.62a5.72,5.72,0,0,0-1.37-3.4,18.4,18.4,0,0,0-5-3.15,19,19,0,0,0-5.86-1.82c-1.26-.15-2.29.15-3.77.1.23,0,.81,1.51.93,1.75a8,8,0,0,0,2.48,2.2c1.76,1.24,3.5,2.29,5.23,3.61,1.11.84,2.17,1.71,3.21,2.61s1.75,1.79,2.88,1a3,3,0,0,0,.88-1A3.61,3.61,0,0,0,405.72,411.62Z"/><path class="cls-80" d="M405.81,420.32a10.1,10.1,0,0,0-.37-1.55,4.38,4.38,0,0,0-1.4-2.28c-2.22-1.54-4.67-2.17-7-3.05-2.65-1-5.51-1.72-8.16-2.79a3.1,3.1,0,0,1-1.17-.79,8.41,8.41,0,0,0,1.26,3.73c1.21,1.94,3.33,3.09,5,4.29,2.53,1.8,5.25,3.55,7.91,5.09a1.8,1.8,0,0,0,2.26,0A6.88,6.88,0,0,0,405.81,420.32Z"/><path class="cls-81" d="M405,430l-.17-.44c-.1-.26-.25-.63-.43-1a4.66,4.66,0,0,0-1.69-2.12c-.68-.38-1.44-.77-1.8-1-.75-.51-1.5-1-2.24-1.38-1.49-.84-2.9-1.58-4.22-2.38-2.09-1.25-3.94-2.37-5.27-3.11a7.66,7.66,0,0,0-2.31-.88,3,3,0,0,0-2.13.45c.05.19.11.41.18.63a6.37,6.37,0,0,0,.25.69,3.09,3.09,0,0,0,.18.37c.09.15.1.2.16.3a7.33,7.33,0,0,0,1.69,2.24c.93.95,1.82,1.87,2.72,2.73s1.79,1.66,2.61,2.44c1.48,1.35,2.94,2.61,4.31,3.77.35.28.68.57,1,.84l.25.21.35.27.64.43a17.68,17.68,0,0,0,2.23,1.15,1.9,1.9,0,0,0,2-.56A6.2,6.2,0,0,0,405,430Z"/><path class="cls-82" d="M403.23,440a8.51,8.51,0,0,0-.42-1.94,5.88,5.88,0,0,0-1.86-2.95c-3.47-2.53-7.5-3.68-10.84-5-2.67-1.05-5-1.77-6.58-2.35-.48-.17-.93-.29-1.37-.42s-.89-.26-1.33-.35a4.75,4.75,0,0,0-2.57.06,17.67,17.67,0,0,0,1.1,2.53,9.23,9.23,0,0,0,.68,1,6.61,6.61,0,0,0,.62.69,11.94,11.94,0,0,0,1.17.92c2.58,1.81,4.7,3.17,6.82,4.56,3.61,2.41,7,4.77,9.76,6.55C399.49,444,401.38,443.26,403.23,440Z"/><path class="cls-83" d="M399.4,455s1-4.41.6-5.64a7.46,7.46,0,0,0-1.85-3.52c-2.64-2.46-5.55-4.72-8.34-6.9s-5.68-4.31-8.5-6.49c-1.06-.81-2-1.56-3.08-2.24a21.56,21.56,0,0,0-3.63-1.86,16.28,16.28,0,0,1,.89,3.13,16.11,16.11,0,0,0,4.07,7.43l3.2,3.56c1.07,1.19,2.16,2.38,3.19,3.64.86,1,1.71,2.07,2.57,3.11a58.91,58.91,0,0,0,4.28,4.92,5.22,5.22,0,0,0,4.26,1.37A18.42,18.42,0,0,0,399.4,455Z"/><path class="cls-84" d="M369,513s.71-1.12,1.44-2.47a11.33,11.33,0,0,0,1.49-3.85,11.22,11.22,0,0,0-1.05-5.78c-3.84-6.79-8.36-13.08-12.36-19.69-2.65-4.37-5.41-8.83-8.23-13a48.61,48.61,0,0,1-2.89-4.48,10.05,10.05,0,0,1-.67,1.92,18.57,18.57,0,0,0-.61,2.18,15.84,15.84,0,0,0-.35,4.44,29.62,29.62,0,0,0,2,8.65c1.64,4.69,3.33,9.28,5.24,13.88,2.45,6,4.42,11.82,8,17C362.44,513.74,364.7,514.25,369,513Z"/><path class="cls-85" d="M394.21,467.88a20.35,20.35,0,0,0,.59-4.18,10.83,10.83,0,0,0-.64-3.85,33.48,33.48,0,0,0-2.18-4.5,48.05,48.05,0,0,0-2.66-4c-.92-1.27-1.89-2.49-2.86-3.69l-3.06-3.55c-1.7-2-3.38-3.82-5.24-5.59a33.16,33.16,0,0,0-4.42-3.74,15.12,15.12,0,0,0-2.52-1.4,9.36,9.36,0,0,1-2.49-1.29c.35.3.38,1,.42,1.42a13.54,13.54,0,0,0,.33,2,14.34,14.34,0,0,0,.86,2.43,25,25,0,0,0,1.12,2.34c.82,1.52,1.86,3,2.8,4.42a120.65,120.65,0,0,1,6.29,10.64c1.87,3.47,3.32,7.3,5.14,10.82,1.25,2.4,3,4.08,5.74,3.27C391.9,469.27,394,468.65,394.21,467.88Z"/><path class="cls-86" d="M387.68,481.65a8.83,8.83,0,0,0,1-4.44,9.78,9.78,0,0,0-.9-3.93,26.94,26.94,0,0,0-2.87-4.44,91.58,91.58,0,0,0-8.14-8.75c-2.84-2.71-5.76-5.27-8.79-7.77A25.39,25.39,0,0,0,360,448.2a1.66,1.66,0,0,1-.3-.15l-.36-.3c0,.17.09.35.14.53l.06.34.11.64c.06.41.13.83.2,1.26.15.83.24,1.64.44,2.33a11.38,11.38,0,0,0,2.19,4.53c4.39,6.42,8.84,13,13,19.75,1.46,2.32,2.76,4.86,4.54,6.78a2.63,2.63,0,0,0,2.34.75c1.56-.1,3.17-1.08,3.8.37C386.26,485.28,387.51,481.93,387.68,481.65Z"/><path class="cls-87" d="M360,526.5s-.42-.51-.69-.56l-.23-.07-.13,0h-.07l-.37,0h-.93a11.21,11.21,0,0,1-1.12-.07,7,7,0,0,1-4.69-2.22,41.17,41.17,0,0,1-5.56-9.12c-1.52-3.24-2.77-6.51-3.93-9.48-.93-2.38-1.65-4.62-2.23-6.64s-1.08-3.8-1.47-5.25a20,20,0,0,1-.71-5,39.2,39.2,0,0,1,.78-4.66l1.75.85a14,14,0,0,1,2,1.22,10.08,10.08,0,0,1,3.24,3.85c2.45,4.25,4.31,7.68,6.42,11,3.65,5.86,7.57,11.19,10.52,15.36a4.45,4.45,0,0,1,.23,3.81,38.33,38.33,0,0,1-1.66,4.67l-.57.88A3.06,3.06,0,0,0,360,526.5Z"/><path class="cls-88" d="M378.32,499.27c0-.8-1.61-.8-2.12-.84-2.4-.21-4.69-.82-6.22-2.75-4.81-6-7.54-13.52-10.33-19.6-.7-1.58-1.34-3.19-2-4.8l-1.93-4.81a25.77,25.77,0,0,1-1.51-5,12.16,12.16,0,0,1-.13-5.29c.06-.28.33-1.06.07-1.27a15.49,15.49,0,0,1,7.65,5.84l3.92,5.86c1.2,1.83,2.35,3.56,3.5,5.32,2.09,3.11,4.38,6.26,6.54,9.34l3.3,4.7a9.39,9.39,0,0,1,2,4.27A11.79,11.79,0,0,1,379.4,497l-.57.87A3.22,3.22,0,0,0,378.32,499.27Z"/><path class="cls-89" d="M352,537.49a16.5,16.5,0,0,0,.89-3,9.46,9.46,0,0,0-.41-5.67c-2.57-5.34-6.49-9.35-10.13-13.64L337.2,509a42.68,42.68,0,0,0-5.64-5.84c-.91-.75-1.88-1.39-2.85-2.07a26.66,26.66,0,0,1-2.68-1.92,1,1,0,0,0,0,.25l0,.24v.13a32.9,32.9,0,0,0,.53,8.4,29.48,29.48,0,0,0,2.82,6.92c1.29,2.42,2.76,4.7,4.13,7.08l5.43,9.58c.94,1.62,1.9,3.21,2.92,4.75.85,1.29,1.66,3.2,3.42,3.3C347.45,539.88,349.85,538.81,352,537.49Z"/><path class="cls-90" d="M331.76,561.66a357.77,357.77,0,0,0,33.1-42.84c1.27-1.85,2.48-3.73,3.68-5.62l3.65-5.64c2.32-3.82,4.75-7.58,7-11.48a264.31,264.31,0,0,0,12.6-23.78,166.89,166.89,0,0,0,9.56-25.48l.47-1.65.4-1.66.79-3.35c.51-2.23.87-4.5,1.3-6.76a113.11,113.11,0,0,0,1.29-13.78,102.63,102.63,0,0,0-2.94-27.55,131.38,131.38,0,0,0-4-13.19c-1.58-4.3-3.36-8.48-5.23-12.6-.48-1.06.44-1.42.92-.37a146.23,146.23,0,0,1,9.18,25.43,104.38,104.38,0,0,1,2.46,13.52c.33,2.27.4,4.58.59,6.86l.08,3.45c0,1.14.05,2.29,0,3.44a114.73,114.73,0,0,1-3.88,27,162.29,162.29,0,0,1-9.2,25.29c-7.55,16.45-16.84,31.81-26.71,46.81a368.12,368.12,0,0,1-34.28,44.59C331.74,563.16,331,562.52,331.76,561.66Z"/><path class="cls-91" d="M397,373.34a4.28,4.28,0,0,1-2.22-1.23c-1.06-1.6-1.42-4-1.85-5.68a5.61,5.61,0,0,1,0-3.39,7.27,7.27,0,0,1,1.07.8,8.16,8.16,0,0,1,1.17,2.08,30,30,0,0,0,2.25,4.23C397.65,370.64,398.39,372.38,397,373.34Z"/><path class="cls-92" d="M63.11,462c-4.17,2.28-8.16,4-11.34,9.53-1.44,2.49-4.88,7.12-7.14,5.95-4-2.08,8.52-15,9.85-16.33a27.32,27.32,0,0,1,15.21-8,25,25,0,0,1,7.81,0c-.45-1-.93-2.06-1.44-3.07-5.66-4.66-13.35-6.62-18.1-5-5.52,1.84-9.71,6-13.12,11.83-1.52,2.62-3.74,6.24-6.59,7.07-2.63.76-2.41-4.18,1.83-10.92,3.87-6.16,8.78-11.31,14.48-12.73,6.13-1.53,11.5-.17,15.12.46l.37,0a31.49,31.49,0,0,0-4.7-4.55c-.86-.66-1.69-1.27-2.5-1.85-4.93-1-9.14-4.74-18.57-4.27-5.12.25-7.73,3.47-10.15,7.5-1.83,3-2.69,6.6-3.75,10.08-.55,1.81-1.6,4-3.22,4.11-1.08.06-1.88-.93-2.3-2-2.45-6.35,4.81-20.53,12-23.93,4.23-2,8.41-1.71,12.41-.81l-.34-.26c-7-5.54-11.49-9.82-18.94-8.43C19,418.39,13.65,428.7,12.47,435.78c-1.59,9.57-1.62,12.79-1.62,12.79-1.34-.53-3.14-.93-11.36-6.32-7.53-4.95-17.92-8.18-26,3.41-7.62,10.89-6.76,22.16-5,34,.64,4.37,1.4,8.74,2.36,13.05,0-7.9,3.39-22.71,8.52-29.16,8.87-11.15,19-5.93,27.8-.84,4.33,2.52,3.84,5.67,1.47,6-5.22.63-8.54-2.45-16.49-3.1-9.83-.82-14.95,10.92-18.84,34-.16,1-.23,1.38-.27,1.56a92,92,0,0,0,3.87,10.66c.64,1.44,1.31,2.8,2,4.12,1.4-11.26,6.46-28.28,14.51-33.62,5.77-3.82,12.65-3,18.38-1.82,3.37.7,8.1,3.87,4.38,6.53a10.4,10.4,0,0,1-8.34,1.72c-12.92-2.25-20.47,3.52-23,27.33a56.55,56.55,0,0,0-.5,8.32A47.36,47.36,0,0,0-2,536.61c-.17-2.73-.41-5.44-.31-8.18.39-10.78,4.54-22.46,14-26.1,10.58-4.06,13.24-4,14.75-1.51.84,1.37-1.51,4.71-4.21,6-5.14,2.4-12,2.91-16.59,10.24-4.73,7.52-2.19,15.29.24,23,0,.11.08.22.12.34a78.27,78.27,0,0,0,19.49,4.19c-.06-3.79-1.61-7.11-2.39-10.71-1.45-6.64.06-14.21,6-18.71,1.55-1.18,4.28-2.3,5.87-1.16,1.74,1.24-.37,3.9-1.69,5.48-2,2.43-4.49,9.28-3,16.76.8,4.11,1.31,6.87,1.61,8.84,3.9.23,7.78.36,11.61.5a36.48,36.48,0,0,1-1.11-9.66c.11-2.37.75-9.07,3.65-8.8,3.22.29,3,9.41,3.34,12a64.43,64.43,0,0,0,1.05,6.83c12.68.76,16.29,4.06,16.29,4.06a177.09,177.09,0,0,0,7.55-18.29c.44-1.36.88-2.72,1.31-4.09a26.72,26.72,0,0,0-3.71-3.52c-2.06-1.59-4.38-2.17-6.51-3.61s-3.55-5.73,0-6.87c2.14-.71,4.59,0,6.53.72a28.15,28.15,0,0,1,6.45,3.32l.24.19c.88-3.08,1.69-6.15,2.4-9.22a43.15,43.15,0,0,1-4.43-4.82c-2.77-3.32-4.73-3.5-11.41-3.39-2.27,0-10.85,3-10.33-1.76.67-6.24,10.65-4.43,13.48-4,5,.68,10.23,1.68,14.63,4.2.49-3.07.84-6.14,1-9.19a30,30,0,0,0-5.73-5.13c-3.56-2.39-7.59-4.21-11.87-3.86a27.06,27.06,0,0,0-11,3.82c-1.38.8-3.09,2.11-4.32.35-3.43-4.9,7.11-7.44,9.22-8,8.36-2.15,17-1.31,23.77,3.76l.07.05A68.77,68.77,0,0,0,82.93,471c-.4-2.15-.91-4.34-1.5-6.55C76,460.23,69.54,458.44,63.11,462Z"/><path class="cls-93" d="M10.85,448.45v0Z"/><path class="cls-94" d="M10.85,448.57v-.12a109.31,109.31,0,0,1,1.62-12.67C13.65,428.7,19,418.39,30,416.34c7.45-1.39,11.92,2.89,18.94,8.43l.34.26c-4-.9-8.18-1.19-12.41.81-7.17,3.4-14.43,17.58-12,23.93.42,1.08,1.22,2.07,2.3,2,1.62-.09,2.67-2.3,3.22-4.11,1.06-3.48,1.92-7.06,3.75-10.08,2.42-4,5-7.25,10.15-7.5,9.43-.47,13.64,3.29,18.57,4.27.81.58,1.64,1.19,2.5,1.85a31.49,31.49,0,0,1,4.7,4.55l-.37,0c-3.62-.63-9-2-15.12-.46C48.86,441.68,44,446.83,40.08,453c-4.24,6.74-4.46,11.68-1.83,10.92,2.85-.83,5.07-4.45,6.59-7.07,3.41-5.84,7.6-10,13.12-11.83,4.75-1.6,12.44.36,18.1,5,.51,1,1,2,1.44,3.07a25,25,0,0,0-7.81,0,27.32,27.32,0,0,0-15.21,8c-1.33,1.37-13.84,14.25-9.85,16.33,2.26,1.17,5.7-3.46,7.14-5.95C55,466,58.94,464.26,63.11,462c6.43-3.54,12.88-1.75,18.32,2.43.59,2.21,1.1,4.4,1.5,6.55A68.77,68.77,0,0,1,84,480.6l-.07-.05c-6.81-5.07-15.41-5.91-23.77-3.76-2.11.54-12.65,3.08-9.22,8,1.23,1.76,2.94.45,4.32-.35a27.06,27.06,0,0,1,11-3.82c4.28-.35,8.31,1.47,11.87,3.86a30,30,0,0,1,5.73,5.13c-.2,3.05-.56,6.12-1,9.19-4.4-2.52-9.6-3.52-14.63-4.2-2.83-.39-12.81-2.2-13.48,4-.52,4.79,8.06,1.8,10.33,1.76,6.68-.11,8.64.07,11.41,3.39A43.15,43.15,0,0,0,81,508.59c-.71,3.07-1.52,6.14-2.4,9.22l-.24-.19a28.15,28.15,0,0,0-6.45-3.32c-1.94-.71-4.39-1.43-6.53-.72-3.5,1.14-2.22,5.34,0,6.87s4.45,2,6.51,3.61a26.72,26.72,0,0,1,3.71,3.52c-.43,1.37-.87,2.73-1.31,4.09A177.09,177.09,0,0,1,66.74,550c-4.43-23.8-19.62-43.8-35.14-63.82C10.41,458.78,10.85,448.57,10.85,448.57Z"/><path class="cls-95" d="M204.25,554.09C223,512.28,220.67,479,220.09,474.75c-.25-1.77-.49-3.59-.74-5.43-.58-4.37-1.18-8.89-1.86-13.09-.22-1.34-.51-2.82-.83-4.38-1.2-6-2.69-13.45-.7-18.69l1.27.48c-1.85,4.87-.4,12.12.76,17.94.32,1.58.62,3.07.84,4.43.69,4.23,1.29,8.75,1.87,13.13q.36,2.76.73,5.42c.54,3.89,2.79,38.07-15.94,80.07C203.43,559.27,202.19,558.7,204.25,554.09Z"/><path class="cls-96" d="M213.52,428.53a27.81,27.81,0,0,0,1.7,5,6.56,6.56,0,0,0,1.1,1.58c.15-.2.87-1.09,1.06-1.34.76-1,1.8-2.43,3-4.14A27,27,0,0,0,224,422.2c.69-2.8.28-5.59-3.44-7.41-4-.9-6.22,1.45-7.1,4.62A19.51,19.51,0,0,0,213.52,428.53Z"/><path class="cls-97" d="M209.49,444.64c2,.44,3.68.74,4.9.94s2,.28,2,.28a18.38,18.38,0,0,0-.58-1.91,27.87,27.87,0,0,0-2.2-4.73,18.51,18.51,0,0,0-6.28-6.56,7.18,7.18,0,0,0-4.53-1,5,5,0,0,0-3.71,3c-.91,4,.55,5.92,2.88,7.33A27.91,27.91,0,0,0,209.49,444.64Z"/><path class="cls-98" d="M216.91,439.18a23,23,0,0,0-.67,4.94,14.35,14.35,0,0,0,.07,1.89s.63-.3,1.66-.84,2.47-1.29,4.11-2.2a27.08,27.08,0,0,0,6.15-4.4c1.77-1.93,2.72-4.31.58-7.53-2.81-2.62-5.71-1.71-7.89.51A17.31,17.31,0,0,0,216.91,439.18Z"/><path class="cls-99" d="M212.39,462.71a30,30,0,0,0,7.32,1.47,56.58,56.58,0,0,0-2.68-6.82,26.17,26.17,0,0,0-4.77-7.21c-2.17-2.07-4.74-3-8.34-.76-3,3.07-1.9,6.34.45,8.71A20.63,20.63,0,0,0,212.39,462.71Z"/><path class="cls-100" d="M220.3,456.41a19.87,19.87,0,0,0-.88,6,12,12,0,0,0,.13,1.67l.1.57.5-.3c.33-.2.76-.49,1.36-.81,1.15-.67,2.8-1.5,4.71-2.43a32.59,32.59,0,0,0,7.41-4.62c2.25-2.1,3.55-4.84,1.3-8.78-3.1-3.3-6.55-2.46-9.29-.05A20,20,0,0,0,220.3,456.41Z"/><path class="cls-101" d="M215.82,477.38l5.47,1.4-.06-.43a9.53,9.53,0,0,0-.25-1.19,18.13,18.13,0,0,0-1.59-4.06,15.35,15.35,0,0,0-5-5.61c-2.29-1.43-5.07-1.63-6.8,1.24-1,3.2.16,4.93,2.07,6.2A22.44,22.44,0,0,0,215.82,477.38Z"/><path class="cls-102" d="M221.26,473.51a13,13,0,0,0-.25,4.05,5.47,5.47,0,0,0,.21,1.11l.12.37.3-.24c.2-.16.47-.38.84-.63.72-.51,1.75-1.14,3-1.88a17.78,17.78,0,0,0,4.74-3.86,5.28,5.28,0,0,0,1.23-3,3.83,3.83,0,0,0-1.59-3.15c-2.74-1.31-4.43-.55-5.89,1.2A15.08,15.08,0,0,0,221.26,473.51Z"/><path class="cls-103" d="M217,490a12.49,12.49,0,0,0,3.15,0,7.53,7.53,0,0,0,1.16-.23l-.67-.93L219,486.5a14.37,14.37,0,0,0-3.3-3.55c-1.45-1-3.28-1.34-4.81.52a3.34,3.34,0,0,0,1.18,4.66A12,12,0,0,0,217,490Z"/><path class="cls-104" d="M221.47,485.82a14.76,14.76,0,0,0-.52,3,8.53,8.53,0,0,0,0,1.15s1.54-.68,3.6-1.73a13.5,13.5,0,0,0,3.89-2.84c1.14-1.32,1.64-3,0-4.74a3.27,3.27,0,0,0-4.66.66A11.79,11.79,0,0,0,221.47,485.82Z"/><path class="cls-105" d="M319.31,559.22c0-.21-2.32-21.05-2.84-29.08-1.33-20.29,4.29-38.44,6.69-46.19l.48-1.55c5.74-19,12.75-29.68,18.85-37.65l1.34,1c-6,7.86-12.91,18.41-18.57,37.12l-.48,1.56c-2.37,7.66-7.94,25.6-6.62,45.58.52,8,2.81,28.79,2.83,29Z"/><path class="cls-106" d="M337.23,447.32a22.7,22.7,0,0,0-.81,5.64,16.8,16.8,0,0,0,.14,2.14s.71-.37,1.83-1,2.74-1.45,4.6-2.39a21.51,21.51,0,0,0,6.25-5.94c2.14-2.85,4.24-6.54,4.74-10.44a22.15,22.15,0,0,0-11.23,4.42A15.58,15.58,0,0,0,337.23,447.32Z"/><path class="cls-107" d="M333.65,462.64a34.75,34.75,0,0,0-3,4.45c-.66,1.14-1,1.84-1,1.84s.76.08,2.07.1,3.14,0,5.27-.14,5.11-1.36,8-3.13a38.53,38.53,0,0,0,8.37-6.9,16.22,16.22,0,0,0-12.07-.94A15.8,15.8,0,0,0,333.65,462.64Z"/><path class="cls-108" d="M324.8,462.79c1.29,1.6,2.43,2.94,3.27,3.9s1.36,1.51,1.36,1.51.34-.67.8-1.89a25.88,25.88,0,0,0,1.31-5.23c.33-2.21-.38-5.72-2.21-9a17.79,17.79,0,0,0-8.15-7.87,28.63,28.63,0,0,0,.34,11.25A19.09,19.09,0,0,0,324.8,462.79Z"/><path class="cls-109" d="M327.19,479.05a17,17,0,0,0-3,5.55,10.66,10.66,0,0,0-.4,1.68c-.05.38-.08.59-.08.59l.59-.14c.38-.09.89-.24,1.58-.35a40.28,40.28,0,0,1,5.29-.62,26.77,26.77,0,0,0,8.38-2.69,37.43,37.43,0,0,0,10-6.58,18.64,18.64,0,0,0-13.08-2.43C332.26,474.8,328.82,476.94,327.19,479.05Z"/><path class="cls-110" d="M317.71,480.3c1.47,1.67,2.73,3.15,3.61,4.27l1.38,1.81a15.28,15.28,0,0,0,1.09-2.09,22.08,22.08,0,0,0,1.52-6.12c.29-2.63-.82-6.71-3.22-10.3a20.52,20.52,0,0,0-9.92-8.15,31.37,31.37,0,0,0,1.41,12.7A22.92,22.92,0,0,0,317.71,480.3Z"/><path class="cls-111" d="M321.48,497.08a27.5,27.5,0,0,0-2.07,4.74,18.43,18.43,0,0,0-.53,1.91s.73-.09,1.94-.32,2.9-.57,4.84-1.05,4.48-2.05,6.93-4.05a48.14,48.14,0,0,0,3.6-3.3c1.18-1.19,2.3-2.44,3.55-3.76a11,11,0,0,0-6.05-1.25,15.87,15.87,0,0,0-5.61,1.42A14.49,14.49,0,0,0,321.48,497.08Z"/><path class="cls-112" d="M314,498.79c1.36,1.24,2.56,2.27,3.37,3,.43.39.71.71.95.94l.35.35.19-.45a9.08,9.08,0,0,0,.44-1.34,18.62,18.62,0,0,0,.56-5c0-2.08-1.18-5.12-3.17-7.79a19.89,19.89,0,0,0-7.85-6.42A19.85,19.85,0,0,0,310,492.54,16.91,16.91,0,0,0,314,498.79Z"/><path class="cls-113" d="M108.38,418.84a2.05,2.05,0,0,0,2.33-1.95c.21-1.37.81-2.63.06-4.05-.26-.13-.47.05-1-.11s-1.29.61-1.65,1a10.72,10.72,0,0,0-1.38,2.48C106.56,416.51,107.08,417.64,108.38,418.84Z"/><path class="cls-114" d="M105.41,414.4a3.87,3.87,0,0,0,1.11-.13,1.35,1.35,0,0,0,.93-1.32,6.67,6.67,0,0,0,0-1.62,3.56,3.56,0,0,0-1-1.72c-.13.29-.63.31-.79.31s-.88.65-1.16,1.05c-.49.71-.49.63-.8,1.16C103.59,412.34,103.94,413.59,105.41,414.4Z"/><path class="cls-115" d="M111.36,423.37s.42,0,.89,0c1.26,0,1.46-.62,1.94-1.72a31.62,31.62,0,0,0,1.32-3.56,2.94,2.94,0,0,0-.51-2.59,2.49,2.49,0,0,1-1.1.28,2,2,0,0,0-1.29.5,22.36,22.36,0,0,0-2.39,3.86C110,420.63,110.06,421.36,111.36,423.37Z"/><path class="cls-116" d="M114.3,428.24a4.48,4.48,0,0,0,.86.45c1.7.66,2.7-.55,3.29-2.23a21.28,21.28,0,0,0,.83-4.91,7.25,7.25,0,0,0-.47-2.94,3.33,3.33,0,0,0-1.45.24,2.88,2.88,0,0,0-1,1.33c-.86,1.79-1.74,3.81-3.27,5C112.81,425.43,113.18,426.35,114.3,428.24Z"/><path class="cls-117" d="M118.63,434.43a5,5,0,0,0,1.71.2,2.64,2.64,0,0,0,1.34-.81,9.56,9.56,0,0,0,2.16-3.82,23.37,23.37,0,0,0,1.29-5.21c0-.24.32-3.1.1-3.07a6,6,0,0,0-3.24,2c-.71,1-1.35,2.13-2.09,3.12s-1.54,2.21-2.43,3.17a2.07,2.07,0,0,0-.68,2.37,3.78,3.78,0,0,0,.85,1.17C117.85,433.76,118.34,434.36,118.63,434.43Z"/><path class="cls-118" d="M122,441.37s2,.59,3-.29a14,14,0,0,0,3.46-5.77c.6-1.69,1.75-3.68,1.64-5.66,0-.58,0-4.3,0-4.32a15.92,15.92,0,0,0-3,2.52,19.69,19.69,0,0,0-1.77,2.9,65.86,65.86,0,0,1-4.3,6.25,1.89,1.89,0,0,0-.52,2A7.46,7.46,0,0,0,122,441.37Z"/><path class="cls-119" d="M125.21,447.94s2.09.83,3.27,0c2.24-1.62,3.66-4.22,4.86-6.44a25.52,25.52,0,0,0,1.87-4.69,8.33,8.33,0,0,0,.12-4.47,9.53,9.53,0,0,0-1.83.57,3,3,0,0,0-1.43,1.37,48.84,48.84,0,0,1-2.91,4.1,63.67,63.67,0,0,1-5,5.3C123.61,444.2,123.73,445.73,125.21,447.94Z"/><path class="cls-120" d="M129.53,457.1c.1.29,1.95-.15,2.16-.22a3.63,3.63,0,0,0,1.81-1.14c2.37-3,3.41-6.85,4.32-10.19a31.77,31.77,0,0,0,1-6,15.18,15.18,0,0,0,0-3.16,6.32,6.32,0,0,0-.88-3,6.29,6.29,0,0,0-3,3.83c-.8,2.52-1.51,4.51-2.32,6.43a45.94,45.94,0,0,1-3.78,7.19,5.54,5.54,0,0,0-.87,1.93,4,4,0,0,0,.92,3,4.66,4.66,0,0,1,.25.4A6.77,6.77,0,0,1,129.53,457.1Z"/><path class="cls-121" d="M132.75,465.39s2.76.64,4.53-1c3.33-3,5.48-7.23,7.28-10.87a42.73,42.73,0,0,0,2.83-7.52,13.59,13.59,0,0,0,.53-3.29,13,13,0,0,0,0-1.65,8.77,8.77,0,0,0-.26-1.64,13.32,13.32,0,0,0-2.43,1.45,6.62,6.62,0,0,0-2,2.52c-1.5,2.76-2.78,4.93-4.17,7a92.63,92.63,0,0,1-7.24,9.16C131,460.53,131,462.63,132.75,465.39Z"/><path class="cls-122" d="M134.78,475.29a5,5,0,0,0,.5.23,6.31,6.31,0,0,0,1.36.39,5.4,5.4,0,0,0,4-.83,22,22,0,0,0,5.78-6.42,59.33,59.33,0,0,0,3.6-7.17,31.81,31.81,0,0,0,1.76-5.49,29.87,29.87,0,0,0,.61-4.52,11.93,11.93,0,0,0-.42-4.23,6.72,6.72,0,0,0-1.9-3.17c-.35.77-1,1.65-1.48,2.43a11.38,11.38,0,0,0-1.24,3.25,36.09,36.09,0,0,1-3.76,8.64,41.87,41.87,0,0,1-8.44,10.36,3,3,0,0,0-.89,2.23A15.25,15.25,0,0,0,134.78,475.29Z"/><path class="cls-123" d="M138.7,486.4s4.31,1,6.9-1c4.83-3.83,8.42-9.46,11.21-14.34a57.24,57.24,0,0,0,4.62-10.22,18,18,0,0,0,1-4.58,16,16,0,0,0,0-2.3,14.07,14.07,0,0,0-.65-2h0s-1,.41-1.31.55a12.39,12.39,0,0,0-1.66,1,9.57,9.57,0,0,0-2.91,3.37,107.89,107.89,0,0,1-6.37,9.38,134.86,134.86,0,0,1-10.92,12.06C137.36,479.56,136.64,482.5,138.7,486.4Z"/><path class="cls-124" d="M143.64,501a2.19,2.19,0,0,1,.75-.44l.22,0,.12,0h.07l.32.06.85.09c.31,0,.66,0,1,0a7.2,7.2,0,0,0,4.72-1.53c5.31-4.51,9.09-11.1,12.05-16.8a71.54,71.54,0,0,0,4.73-11.89,21.9,21.9,0,0,0,.91-5.29,24.72,24.72,0,0,0-.3-2.93,17.72,17.72,0,0,0-.38-2.22c-.07,0-1.34.67-1.67.85a13.15,13.15,0,0,0-1.89,1.24,10.79,10.79,0,0,0-3.17,4,113.73,113.73,0,0,1-6.76,11,138.6,138.6,0,0,1-11.77,14.05,4.45,4.45,0,0,0-.94,3.46,31,31,0,0,0,.59,4.3l.34.82A2.56,2.56,0,0,1,143.64,501Z"/><path class="cls-125" d="M147.05,512.22a11.39,11.39,0,0,0,2.34,1,7.08,7.08,0,0,0,4.81,0c4.51-1.91,8.37-5,12-8.43a76.45,76.45,0,0,0,8.08-8.42,27,27,0,0,0,5.48-10.89q.28-1.32.54-2.61a24.86,24.86,0,0,0-4.37.9c-4.56,1.89-8,5.77-11.81,8.87a120.3,120.3,0,0,1-12.87,8.79c-1.63,1-4.2,1.76-4.68,3.94A13.35,13.35,0,0,0,147.05,512.22Z"/><path class="cls-126" d="M107.81,418.25s-.25-.36-.55-.73a2.5,2.5,0,0,0-1-.81A4.88,4.88,0,0,0,104,417c-1,.23-1.87.51-2.79.81a2.92,2.92,0,0,0-1.7,1.52c-.12.26.7,1.08.93,1.18a7.1,7.1,0,0,0,1.72.35,25.14,25.14,0,0,0,5.47.33C108.06,421.15,108.33,420.17,107.81,418.25Z"/><path class="cls-127" d="M104.54,413.43a2.49,2.49,0,0,0-1.53-1.07,3,3,0,0,0-1.48.54,4.3,4.3,0,0,1-1.6.41,7.4,7.4,0,0,0-1.88.52c.1.85.23,1.26,1,1.64a7.94,7.94,0,0,0,2,.68,6.54,6.54,0,0,0,3.8-.21C105.64,415.57,104.88,414.1,104.54,413.43Z"/><path class="cls-128" d="M110.79,422.77s-1.1-1.5-1.93-1.58a12.34,12.34,0,0,0-3.88.66,27.79,27.79,0,0,0-3,.89c-.18.06-2.57,1.08-2.38,1.35a6.59,6.59,0,0,0,.93,1.15,4.6,4.6,0,0,0,2.64.7,34.79,34.79,0,0,0,7.14,0C110.85,425.91,111.21,424.89,110.79,422.77Z"/><path class="cls-129" d="M113.6,427.54a2.68,2.68,0,0,0-.45-.44,4.64,4.64,0,0,0-3.28-.79,22,22,0,0,0-6.38,1.1,11.09,11.09,0,0,0-3.32,1.82c.44.44.78,1,1.37,1.12a27.81,27.81,0,0,0,6.21.74c1.86.05,4.08.49,5.76-.24C114.69,430.33,114.4,428.47,113.6,427.54Z"/><path class="cls-130" d="M117.29,433.71s-.4-.38-.9-.76a3.55,3.55,0,0,0-1.67-.83,25.73,25.73,0,0,0-5.56.45,19.41,19.41,0,0,0-6.74,1.89c-.52.29-1,.68-1.67,1a12.38,12.38,0,0,0,1.59,1.24,5.91,5.91,0,0,0,1.8.47,48.43,48.43,0,0,0,5.9.38,39.57,39.57,0,0,0,6.35,0c.71-.08,1.08-.9,1.17-1.59C117.63,435.5,117.65,434,117.29,433.71Z"/><path class="cls-131" d="M121,440.69a4.13,4.13,0,0,0-2.41-2,21.81,21.81,0,0,0-5.74-.33,24.48,24.48,0,0,0-6.24,1c-1.26.38-2.16,1.05-3.61,1.61.2-.07,1.25,1,1.46,1.1a7.67,7.67,0,0,0,3.1.81c2.06.3,4.14.35,6.23.63l4,.57c1.22.18,2.29.56,3.09-.57a2.94,2.94,0,0,0,.47-1.19A2.51,2.51,0,0,0,121,440.69Z"/><path class="cls-132" d="M124.25,447.16s-1.49-1.91-3.14-2a39.34,39.34,0,0,0-7.72.93c-2.92.45-5.86,1.14-8.79,1.41a3.3,3.3,0,0,1-1.41-.15,6.48,6.48,0,0,0,2.61,2.58c2,1,4.32,1,6.43,1.14a75,75,0,0,0,9.48,0,2.28,2.28,0,0,0,2.1-1.14A6.2,6.2,0,0,0,124.25,447.16Z"/><path class="cls-133" d="M127.62,454.54l-.35-.22c-.22-.13-.53-.31-.88-.49a4.64,4.64,0,0,0-2.47-.66c-.79.07-1.65.18-2.09.17-.91,0-1.79.05-2.66.12-1.72.12-3.38.28-4.94.32l-6.24.12a9.45,9.45,0,0,0-2.55.4,3.37,3.37,0,0,0-1.79,1.4l.45.44c.17.15.34.3.54.45l.33.22a1.56,1.56,0,0,1,.28.17,6.3,6.3,0,0,0,2.58,1c1.3.29,2.53.57,3.75.79s2.36.38,3.51.52c2,.25,3.94.4,5.73.5l1.31.07.32,0h.45c.27,0,.54,0,.78,0a19.06,19.06,0,0,0,2.57-.4,2.23,2.23,0,0,0,1.51-1.47A4.6,4.6,0,0,0,127.62,454.54Z"/><path class="cls-134" d="M130.85,462.45s-2.12-2.18-4.46-2.11c-4.37.13-8.52,1.45-12.2,2.23-2.94.64-5.38,1.32-7.12,1.72-.53.11-1,.26-1.46.39s-1,.27-1.39.43a5.33,5.33,0,0,0-2.29,1.43,17.91,17.91,0,0,0,2.31,1.48,9.71,9.71,0,0,0,1.1.42,6.91,6.91,0,0,0,.93.2,12.11,12.11,0,0,0,1.53.07c3.25,0,5.84-.19,8.42-.36,4.51-.3,8.79-.62,12.1-1C129.62,467.25,131,465.65,130.85,462.45Z"/><path class="cls-135" d="M135,475.75s-.42-.85-1-1.78a8.16,8.16,0,0,0-1.72-2.22,7.2,7.2,0,0,0-3.54-1.26c-3.69-.09-7.32-.06-11,0s-7.33.08-11-.05a33.93,33.93,0,0,0-8.14.36,27.13,27.13,0,0,1,2.44,2.11c2.31,2.17,4.68,2.88,7.68,3.48s6.39.91,9.6,1.43c1.33.22,2.67.43,4,.61a55.59,55.59,0,0,0,6.48.72,6.73,6.73,0,0,0,4.41-1.66A24.09,24.09,0,0,0,135,475.75Z"/><path class="cls-136" d="M138.11,485.64a10.6,10.6,0,0,0-5.36-4.45c-6.2-1.85-12.29-1.87-18.55-2.2-2.59-.14-5.18-.22-7.75-.27a40.82,40.82,0,0,0-6,.21,19,19,0,0,0-3,.59,9.8,9.8,0,0,1-2.87.6c.49,0,.94.55,1.25.85a12.7,12.7,0,0,0,1.55,1.28c2.8,2,6.46,2.7,9.81,3.34,3.93.74,8,1.54,12,2.42,3.75.82,7.45,2,11.23,2.7,2.57.47,5,.11,6.54-2.26C137.3,488,138.48,486.19,138.11,485.64Z"/><path class="cls-137" d="M142.8,498.16c-.54-2.46-3.39-4.57-5.38-5.1a31,31,0,0,0-5.24-.89,198.24,198.24,0,0,0-24.37-.11,30.84,30.84,0,0,0-9.26,2.2,1.28,1.28,0,0,1-.34.09l-.49,0,.46.29.27.21.5.4,1,.79a17.21,17.21,0,0,0,1.88,1.38,11.28,11.28,0,0,0,4.73,1.72c7.84,1.46,15.65,2.78,23.58,4.14a46.85,46.85,0,0,0,8.19,1.11,3.28,3.28,0,0,0,2.34-1.07c1.13-1,1.74-2.66,3.21-2.22C144.11,501.2,142.86,498.43,142.8,498.16Z"/><path class="cls-138" d="M152.27,536.43c-2-11.55-5.35-22.82-9-34s-7.22-22.07-11.14-33.07a256.42,256.42,0,0,0-13.79-32.45,172,172,0,0,0-19.29-29.44c-.47-.58.38-1.17.86-.59a173.39,173.39,0,0,1,19,28.93,249.25,249.25,0,0,1,13.71,31.94c3.93,11,7.57,22.07,11.17,33.15,3.76,11.59,7.31,23.28,9.41,35.28A.52.52,0,1,1,152.27,536.43Z"/><path class="cls-139" d="M103.72,412.62s-1.67.2-2.34-.37c-1.26-1.06-1.94-3-2.57-4.36a4.23,4.23,0,0,1-.46-2.94,5.65,5.65,0,0,1,1.14.38,5.51,5.51,0,0,1,1.41,1.46,20.29,20.29,0,0,0,2.76,3A2,2,0,0,1,103.72,412.62Z"/><path class="cls-140" d="M67.69,515.47C73.6,502.34,84.2,479,86.27,476c7.07-10.31,12.6-18.12,16.27-23.29,1.81-2.56,3.21-4.53,4.17-5.94l1.31.91c-1,1.4-2.37,3.38-4.18,5.95-3.66,5.17-9.19,13-16.25,23.27-2,2.89-12.54,26.13-18.43,39.21C68.67,515.86,68.18,515.65,67.69,515.47Z"/><path class="cls-141" d="M105.9,454.56c-1.53.73-2.87,1.3-3.84,1.7s-1.56.59-1.56.59a16.6,16.6,0,0,1,.12-1.68,24.6,24.6,0,0,1,.92-4.28,16.3,16.3,0,0,1,3.73-6.49c1.9-1.86,4.31-2.65,6.92-.44,2,2.76,1.15,5-.53,6.79A21.34,21.34,0,0,1,105.9,454.56Z"/><path class="cls-142" d="M99.86,468.24a39,39,0,0,1-4-1.43c-1-.41-1.52-.71-1.52-.71s.45-.42,1.28-1.07a31.07,31.07,0,0,1,3.56-2.46,15.81,15.81,0,0,1,7.22-2.3c2.83-.07,5.43,1.3,5.34,4.73-.89,3.34-2.78,4.18-5.07,4.31A22.93,22.93,0,0,1,99.86,468.24Z"/><path class="cls-143" d="M97,460.61a21.69,21.69,0,0,1-2.27,4A13.77,13.77,0,0,1,93.61,466s-.3-.58-.76-1.55-1.11-2.35-1.82-3.94a24.71,24.71,0,0,1-2.1-6.7c-.24-2.42.4-4.72,3.78-5.92,3.56-.37,5.2,1.93,5.57,4.8A16.2,16.2,0,0,1,97,460.61Z"/><path class="cls-144" d="M91.83,479.45a29.25,29.25,0,0,0-4.34-1.32,13.21,13.21,0,0,0-1.36-.23l-.51-.07s.07-.15.25-.45a7.68,7.68,0,0,1,.86-1.21,14.25,14.25,0,0,1,4.34-3.35,16.69,16.69,0,0,1,4.14-1.47,14.65,14.65,0,0,1,5.15-.22c3.33.52,5.84,2.53,5.19,6.47-1.55,3.71-4.11,4.28-6.68,4A36.4,36.4,0,0,1,91.83,479.45Z"/><path class="cls-145" d="M88.6,471.25a17.07,17.07,0,0,1-2,5.05,10.13,10.13,0,0,1-.85,1.23l-.33.41-.26-.46c-.16-.3-.37-.72-.69-1.24-.59-1-1.5-2.41-2.58-4a29.79,29.79,0,0,1-3.77-6.82c-.86-2.63-.69-5.42,2.83-7.47,3.88-1.17,6.17.93,7.28,4A17.8,17.8,0,0,1,88.6,471.25Z"/><path class="cls-146" d="M84.81,492.94c-1.66-.34-3.1-.67-4.12-.93s-1.62-.43-1.62-.43a14.35,14.35,0,0,1,1.09-1.3,22.16,22.16,0,0,1,3.33-2.95,14.52,14.52,0,0,1,7.45-2.8,6.37,6.37,0,0,1,4.12,1.15,3.78,3.78,0,0,1,1.29,3.89c-1.49,3.16-2.84,3.92-5,4.06A28.75,28.75,0,0,1,84.81,492.94Z"/><path class="cls-147" d="M79.91,487.29a15.74,15.74,0,0,1-1,4.18,7.09,7.09,0,0,1-.54,1.08l-.22.36-.25-.34c-.16-.22-.38-.53-.69-.9-.6-.76-1.47-1.75-2.5-2.95a19.72,19.72,0,0,1-3.51-5.57c-.79-2.23-.62-4.75,2.34-6.14,3.19-.66,4.82.85,5.73,3.17A16.13,16.13,0,0,1,79.91,487.29Z"/><path class="cls-148" d="M20,331.16c-5.89,3.89-13,9.37-21.24,20.65l-.69.93c-3.4,4.61-11.37,15.39-15.18,29.16-1.52,5.52-4.87,20.09-4.91,20.24l-1.49-.34c0-.15,3.39-14.76,4.93-20.31,3.88-14,12-25,15.42-29.66l.68-.93c8.36-11.47,15.63-17.06,21.63-21Z"/><path class="cls-149" d="M20,326a19,19,0,0,0-2.54,4.64,12.14,12.14,0,0,0-.56,1.9l1.91-.29c1.18-.18,2.83-.37,4.72-.58a26.81,26.81,0,0,0,7.69-1.78c2.59-1.2,4.7-3.51,3.38-7.31-2.16-3.38-4.86-3.54-7.72-2.32A18.53,18.53,0,0,0,20,326Z"/><path class="cls-150" d="M15.7,335.25a29.64,29.64,0,0,0-4.61,1.91,18.83,18.83,0,0,0-1.67.94s.56.44,1.55,1.11,2.43,1.59,4.13,2.55a28.59,28.59,0,0,0,7.11,3c2.51.5,4.73.12,6.81-3.24a4.79,4.79,0,0,0-.6-4.56,6.93,6.93,0,0,0-3.94-2.29A17.39,17.39,0,0,0,15.7,335.25Z"/><path class="cls-151" d="M8,332.72c.45,1.82.87,3.39,1.17,4.52s.51,1.79.51,1.79a15.49,15.49,0,0,0,1.44-1.23A22.53,22.53,0,0,0,14.26,334a17.35,17.35,0,0,0,2.9-8.13c.16-3.11-1.14-5.87-5-6.16-3.82.61-4.94,2.93-5.15,5.54A26.92,26.92,0,0,0,8,332.72Z"/><path class="cls-152" d="M5.47,345.9a15.44,15.44,0,0,0-5.24,2.71,8.46,8.46,0,0,0-1.16,1.12c-.24.28-.35.43-.35.43l.53.17a14.15,14.15,0,0,1,1.4.5A33.23,33.23,0,0,1,5,353.07a39.29,39.29,0,0,0,7.05,3.6c2.67.83,5.49.72,7.85-2.91,1.45-4.05-.83-6.66-4.26-7.86a15.66,15.66,0,0,0-5.49-.76A17.84,17.84,0,0,0,5.47,345.9Z"/><path class="cls-153" d="M-3.83,342.6c.84,1.86,1.55,3.5,2,4.71.24.62.38,1.1.5,1.45l.18.53.43-.36a10.89,10.89,0,0,0,1.14-1.14,18.26,18.26,0,0,0,3.06-5,19,19,0,0,0,1.42-9.88c-.58-3.48-2.6-6.14-6.94-5.66-4.13,1.49-4.84,4.43-4.44,7.38A32.06,32.06,0,0,0-3.83,342.6Z"/><path class="cls-154" d="M-4.35,358.94a23.77,23.77,0,0,0-4.11,2.49,14.27,14.27,0,0,0-1.4,1.17s.6.3,1.63.77,2.5,1.09,4.19,1.78a31.38,31.38,0,0,0,6.81,2c2.31.26,3.89-.28,6.08-3.34a4.07,4.07,0,0,0-.62-4.37,6.82,6.82,0,0,0-4.15-2A15.72,15.72,0,0,0-4.35,358.94Z"/></g></svg>